<svg width="432" height="111" viewBox="0 0 432 111" fill="none" xmlns="http://www.w3.org/2000/svg">
<rect x="0.5" y="0.5" width="431" height="110" rx="7.5" fill="#FAFBFB" stroke="#DADBDB"/>
<path d="M165.48 29.0795C165.124 29.0795 164.804 29.0114 164.52 28.875C164.238 28.7367 164.012 28.5473 163.844 28.3068C163.675 28.0663 163.585 27.7917 163.574 27.483H164.426C164.447 27.733 164.558 27.9384 164.759 28.0994C164.959 28.2604 165.2 28.3409 165.48 28.3409C165.704 28.3409 165.902 28.2898 166.074 28.1875C166.248 28.0833 166.384 27.9403 166.483 27.7585C166.583 27.5767 166.634 27.3693 166.634 27.1364C166.634 26.8996 166.582 26.6884 166.48 26.5028C166.378 26.3172 166.237 26.1714 166.057 26.0653C165.879 25.9593 165.674 25.9053 165.443 25.9034C165.267 25.9034 165.09 25.9337 164.912 25.9943C164.734 26.0549 164.59 26.1345 164.48 26.233L163.676 26.1136L164.003 23.1818H167.202V23.9347H164.733L164.548 25.5625H164.582C164.696 25.4527 164.847 25.3608 165.034 25.2869C165.223 25.2131 165.426 25.1761 165.642 25.1761C165.996 25.1761 166.312 25.2604 166.588 25.429C166.866 25.5975 167.085 25.8277 167.244 26.1193C167.405 26.4091 167.485 26.7424 167.483 27.1193C167.485 27.4962 167.4 27.8324 167.227 28.1278C167.057 28.4233 166.82 28.6562 166.517 28.8267C166.216 28.9953 165.87 29.0795 165.48 29.0795ZM170.558 29.0966C170.109 29.0947 169.726 28.9763 169.408 28.7415C169.089 28.5066 168.846 28.1648 168.677 27.7159C168.509 27.267 168.425 26.7263 168.425 26.0938C168.425 25.4631 168.509 24.9242 168.677 24.4773C168.848 24.0303 169.092 23.6894 169.41 23.4545C169.731 23.2197 170.113 23.1023 170.558 23.1023C171.003 23.1023 171.385 23.2206 171.703 23.4574C172.021 23.6922 172.265 24.0331 172.433 24.4801C172.604 24.9252 172.689 25.4631 172.689 26.0938C172.689 26.7282 172.605 27.2699 172.436 27.7188C172.267 28.1657 172.024 28.5076 171.706 28.7443C171.388 28.9792 171.005 29.0966 170.558 29.0966ZM170.558 28.3381C170.952 28.3381 171.26 28.1458 171.481 27.7614C171.705 27.3769 171.817 26.821 171.817 26.0938C171.817 25.6108 171.766 25.2027 171.663 24.8693C171.563 24.5341 171.418 24.2803 171.229 24.108C171.041 23.9337 170.818 23.8466 170.558 23.8466C170.166 23.8466 169.858 24.0398 169.635 24.4261C169.411 24.8125 169.299 25.3684 169.297 26.0938C169.297 26.5786 169.347 26.9886 169.447 27.3239C169.55 27.6572 169.695 27.91 169.882 28.0824C170.07 28.2528 170.295 28.3381 170.558 28.3381ZM174.569 26.4091V29H173.72V23.1818H174.558V25.3466H174.612C174.714 25.1117 174.871 24.9252 175.081 24.7869C175.291 24.6487 175.566 24.5795 175.905 24.5795C176.204 24.5795 176.465 24.6411 176.689 24.7642C176.914 24.8873 177.088 25.071 177.212 25.3153C177.337 25.5578 177.399 25.8608 177.399 26.2244V29H176.55V26.3267C176.55 26.0066 176.467 25.7585 176.302 25.5824C176.138 25.4044 175.908 25.3153 175.615 25.3153C175.414 25.3153 175.234 25.358 175.075 25.4432C174.918 25.5284 174.794 25.6534 174.703 25.8182C174.614 25.9811 174.569 26.178 174.569 26.4091Z" fill="#9B9B9B"/>
<path d="M163.56 58V57.3636L165.528 55.3239C165.739 55.1023 165.912 54.9081 166.048 54.7415C166.187 54.5729 166.29 54.4129 166.358 54.2614C166.426 54.1098 166.46 53.9489 166.46 53.7784C166.46 53.5852 166.415 53.4186 166.324 53.2784C166.233 53.1364 166.109 53.0275 165.952 52.9517C165.795 52.8741 165.617 52.8352 165.42 52.8352C165.212 52.8352 165.03 52.8778 164.875 52.9631C164.72 53.0483 164.6 53.1686 164.517 53.3239C164.434 53.4792 164.392 53.661 164.392 53.8693H163.554C163.554 53.5152 163.635 53.2055 163.798 52.9403C163.961 52.6752 164.185 52.4697 164.469 52.3239C164.753 52.1761 165.076 52.1023 165.438 52.1023C165.803 52.1023 166.125 52.1752 166.403 52.321C166.684 52.465 166.902 52.6619 167.06 52.9119C167.217 53.16 167.295 53.4403 167.295 53.7528C167.295 53.9688 167.255 54.1799 167.173 54.3864C167.094 54.5928 166.955 54.8229 166.756 55.0767C166.557 55.3286 166.28 55.6345 165.926 55.9943L164.77 57.2045V57.2472H167.389V58H163.56ZM170.503 58.0966C170.055 58.0947 169.671 57.9763 169.353 57.7415C169.035 57.5066 168.791 57.1648 168.623 56.7159C168.454 56.267 168.37 55.7263 168.37 55.0938C168.37 54.4631 168.454 53.9242 168.623 53.4773C168.793 53.0303 169.038 52.6894 169.356 52.4545C169.676 52.2197 170.058 52.1023 170.503 52.1023C170.949 52.1023 171.33 52.2206 171.648 52.4574C171.967 52.6922 172.21 53.0331 172.378 53.4801C172.549 53.9252 172.634 54.4631 172.634 55.0938C172.634 55.7282 172.55 56.2699 172.381 56.7188C172.213 57.1657 171.969 57.5076 171.651 57.7443C171.333 57.9792 170.95 58.0966 170.503 58.0966ZM170.503 57.3381C170.897 57.3381 171.205 57.1458 171.427 56.7614C171.65 56.3769 171.762 55.821 171.762 55.0938C171.762 54.6108 171.711 54.2027 171.609 53.8693C171.508 53.5341 171.363 53.2803 171.174 53.108C170.986 52.9337 170.763 52.8466 170.503 52.8466C170.111 52.8466 169.804 53.0398 169.58 53.4261C169.357 53.8125 169.244 54.3684 169.242 55.0938C169.242 55.5786 169.292 55.9886 169.393 56.3239C169.495 56.6572 169.64 56.91 169.827 57.0824C170.015 57.2528 170.24 57.3381 170.503 57.3381ZM174.515 55.4091V58H173.665V52.1818H174.503V54.3466H174.557C174.66 54.1117 174.816 53.9252 175.026 53.7869C175.236 53.6487 175.511 53.5795 175.85 53.5795C176.149 53.5795 176.411 53.6411 176.634 53.7642C176.859 53.8873 177.034 54.071 177.157 54.3153C177.282 54.5578 177.344 54.8608 177.344 55.2244V58H176.495V55.3267C176.495 55.0066 176.412 54.7585 176.248 54.5824C176.083 54.4044 175.854 54.3153 175.56 54.3153C175.359 54.3153 175.18 54.358 175.02 54.4432C174.863 54.5284 174.739 54.6534 174.648 54.8182C174.559 54.9811 174.515 55.178 174.515 55.4091Z" fill="#9B9B9B"/>
<path d="M166.767 81.1818V87H165.886V82.0625H165.852L164.46 82.9716V82.1307L165.912 81.1818H166.767ZM170.378 87.0966C169.93 87.0947 169.546 86.9763 169.228 86.7415C168.91 86.5066 168.666 86.1648 168.498 85.7159C168.329 85.267 168.245 84.7263 168.245 84.0938C168.245 83.4631 168.329 82.9242 168.498 82.4773C168.668 82.0303 168.913 81.6894 169.231 81.4545C169.551 81.2197 169.933 81.1023 170.378 81.1023C170.824 81.1023 171.205 81.2206 171.523 81.4574C171.842 81.6922 172.085 82.0331 172.253 82.4801C172.424 82.9252 172.509 83.4631 172.509 84.0938C172.509 84.7282 172.425 85.2699 172.256 85.7188C172.088 86.1657 171.844 86.5076 171.526 86.7443C171.208 86.9792 170.825 87.0966 170.378 87.0966ZM170.378 86.3381C170.772 86.3381 171.08 86.1458 171.302 85.7614C171.525 85.3769 171.637 84.821 171.637 84.0938C171.637 83.6108 171.586 83.2027 171.484 82.8693C171.383 82.5341 171.238 82.2803 171.049 82.108C170.861 81.9337 170.638 81.8466 170.378 81.8466C169.986 81.8466 169.679 82.0398 169.455 82.4261C169.232 82.8125 169.119 83.3684 169.117 84.0938C169.117 84.5786 169.167 84.9886 169.268 85.3239C169.37 85.6572 169.515 85.91 169.702 86.0824C169.89 86.2528 170.115 86.3381 170.378 86.3381ZM174.39 84.4091V87H173.54V81.1818H174.378V83.3466H174.432C174.535 83.1117 174.691 82.9252 174.901 82.7869C175.111 82.6487 175.386 82.5795 175.725 82.5795C176.024 82.5795 176.286 82.6411 176.509 82.7642C176.734 82.8873 176.909 83.071 177.032 83.3153C177.157 83.5578 177.219 83.8608 177.219 84.2244V87H176.37V84.3267C176.37 84.0066 176.287 83.7585 176.123 83.5824C175.958 83.4044 175.729 83.3153 175.435 83.3153C175.234 83.3153 175.055 83.358 174.895 83.4432C174.738 83.5284 174.614 83.6534 174.523 83.8182C174.434 83.9811 174.39 84.178 174.39 84.4091Z" fill="#9B9B9B"/>
<path d="M279.778 99L278.165 93.1818H279.088L280.222 97.6875H280.276L281.455 93.1818H282.369L283.548 97.6903H283.602L284.733 93.1818H285.659L284.043 99H283.159L281.935 94.642H281.889L280.665 99H279.778ZM287.854 99.0881C287.424 99.0881 287.054 98.9962 286.744 98.8125C286.435 98.6269 286.196 98.3665 286.028 98.0312C285.861 97.6941 285.778 97.2992 285.778 96.8466C285.778 96.3996 285.861 96.0057 286.028 95.6648C286.196 95.3239 286.431 95.0578 286.732 94.8665C287.035 94.6752 287.389 94.5795 287.795 94.5795C288.041 94.5795 288.28 94.6203 288.511 94.7017C288.742 94.7831 288.949 94.911 289.133 95.0852C289.316 95.2595 289.461 95.4858 289.567 95.7642C289.673 96.0407 289.726 96.3769 289.726 96.7727V97.0739H286.258V96.4375H288.894C288.894 96.214 288.849 96.0161 288.758 95.8438C288.667 95.6695 288.539 95.5322 288.374 95.4318C288.211 95.3314 288.02 95.2812 287.8 95.2812C287.562 95.2812 287.353 95.34 287.175 95.4574C286.999 95.5729 286.863 95.7244 286.766 95.9119C286.672 96.0975 286.624 96.2992 286.624 96.517V97.0142C286.624 97.3059 286.675 97.554 286.778 97.7585C286.882 97.9631 287.027 98.1193 287.212 98.2273C287.398 98.3333 287.615 98.3864 287.863 98.3864C288.024 98.3864 288.171 98.3636 288.303 98.3182C288.436 98.2708 288.55 98.2008 288.647 98.108C288.744 98.0152 288.817 97.9006 288.869 97.7642L289.673 97.9091C289.608 98.1458 289.493 98.3532 289.326 98.5312C289.161 98.7074 288.954 98.8447 288.704 98.9432C288.456 99.0398 288.173 99.0881 287.854 99.0881ZM292.314 99.0852C291.962 99.0852 291.648 98.9953 291.371 98.8153C291.097 98.6335 290.881 98.375 290.724 98.0398C290.568 97.7027 290.491 97.2983 290.491 96.8267C290.491 96.3551 290.569 95.9517 290.726 95.6165C290.886 95.2812 291.103 95.0246 291.38 94.8466C291.656 94.6686 291.97 94.5795 292.32 94.5795C292.591 94.5795 292.809 94.625 292.974 94.7159C293.14 94.8049 293.269 94.9091 293.36 95.0284C293.453 95.1477 293.525 95.2528 293.576 95.3438H293.627V93.1818H294.476V99H293.647V98.321H293.576C293.525 98.4138 293.451 98.5199 293.354 98.6392C293.26 98.7585 293.129 98.8627 292.962 98.9517C292.796 99.0407 292.58 99.0852 292.314 99.0852ZM292.502 98.3608C292.746 98.3608 292.953 98.2964 293.121 98.1676C293.292 98.0369 293.421 97.8561 293.508 97.625C293.597 97.3939 293.641 97.125 293.641 96.8182C293.641 96.5152 293.598 96.25 293.511 96.0227C293.423 95.7955 293.296 95.6184 293.127 95.4915C292.958 95.3646 292.75 95.3011 292.502 95.3011C292.246 95.3011 292.033 95.3674 291.863 95.5C291.692 95.6326 291.564 95.8134 291.476 96.0426C291.391 96.2718 291.349 96.5303 291.349 96.8182C291.349 97.1098 291.392 97.3722 291.479 97.6051C291.566 97.8381 291.695 98.0227 291.866 98.1591C292.038 98.2936 292.25 98.3608 292.502 98.3608ZM296.55 96.4091V99H295.701V94.6364H296.516V95.3466H296.57C296.67 95.1155 296.828 94.9299 297.042 94.7898C297.258 94.6496 297.529 94.5795 297.857 94.5795C298.154 94.5795 298.415 94.642 298.638 94.767C298.862 94.8902 299.035 95.0739 299.158 95.3182C299.281 95.5625 299.343 95.8646 299.343 96.2244V99H298.493V96.3267C298.493 96.0104 298.411 95.7633 298.246 95.5852C298.081 95.4053 297.855 95.3153 297.567 95.3153C297.37 95.3153 297.195 95.358 297.042 95.4432C296.89 95.5284 296.77 95.6534 296.681 95.8182C296.594 95.9811 296.55 96.178 296.55 96.4091ZM302.375 99.0881C301.945 99.0881 301.575 98.9962 301.264 98.8125C300.955 98.6269 300.717 98.3665 300.548 98.0312C300.381 97.6941 300.298 97.2992 300.298 96.8466C300.298 96.3996 300.381 96.0057 300.548 95.6648C300.717 95.3239 300.951 95.0578 301.253 94.8665C301.556 94.6752 301.91 94.5795 302.315 94.5795C302.561 94.5795 302.8 94.6203 303.031 94.7017C303.262 94.7831 303.469 94.911 303.653 95.0852C303.837 95.2595 303.982 95.4858 304.088 95.7642C304.194 96.0407 304.247 96.3769 304.247 96.7727V97.0739H300.778V96.4375H303.414C303.414 96.214 303.369 96.0161 303.278 95.8438C303.187 95.6695 303.059 95.5322 302.895 95.4318C302.732 95.3314 302.54 95.2812 302.321 95.2812C302.082 95.2812 301.874 95.34 301.696 95.4574C301.52 95.5729 301.383 95.7244 301.287 95.9119C301.192 96.0975 301.145 96.2992 301.145 96.517V97.0142C301.145 97.3059 301.196 97.554 301.298 97.7585C301.402 97.9631 301.547 98.1193 301.733 98.2273C301.918 98.3333 302.135 98.3864 302.383 98.3864C302.544 98.3864 302.691 98.3636 302.824 98.3182C302.956 98.2708 303.071 98.2008 303.167 98.108C303.264 98.0152 303.338 97.9006 303.389 97.7642L304.193 97.9091C304.128 98.1458 304.013 98.3532 303.846 98.5312C303.682 98.7074 303.474 98.8447 303.224 98.9432C302.976 99.0398 302.693 99.0881 302.375 99.0881ZM308.471 95.7017L307.701 95.8381C307.669 95.7396 307.618 95.6458 307.548 95.5568C307.48 95.4678 307.387 95.3949 307.27 95.3381C307.152 95.2812 307.005 95.2528 306.829 95.2528C306.589 95.2528 306.388 95.3068 306.227 95.4148C306.066 95.5208 305.985 95.6581 305.985 95.8267C305.985 95.9725 306.039 96.09 306.147 96.179C306.255 96.268 306.43 96.3409 306.67 96.3977L307.363 96.5568C307.765 96.6496 308.064 96.7926 308.261 96.9858C308.458 97.179 308.556 97.4299 308.556 97.7386C308.556 98 308.481 98.233 308.329 98.4375C308.18 98.6402 307.97 98.7992 307.701 98.9148C307.434 99.0303 307.125 99.0881 306.772 99.0881C306.284 99.0881 305.885 98.9839 305.576 98.7756C305.268 98.5653 305.078 98.267 305.008 97.8807L305.829 97.7557C305.88 97.9697 305.985 98.1316 306.145 98.2415C306.304 98.3494 306.511 98.4034 306.767 98.4034C307.045 98.4034 307.268 98.3456 307.434 98.2301C307.601 98.1127 307.684 97.9697 307.684 97.8011C307.684 97.6648 307.633 97.5502 307.531 97.4574C307.431 97.3646 307.276 97.2945 307.068 97.2472L306.329 97.0852C305.922 96.9924 305.621 96.8447 305.426 96.642C305.233 96.4394 305.136 96.1828 305.136 95.8722C305.136 95.6146 305.208 95.3892 305.352 95.196C305.496 95.0028 305.695 94.8523 305.948 94.7443C306.202 94.6345 306.493 94.5795 306.821 94.5795C307.292 94.5795 307.663 94.6818 307.934 94.8864C308.205 95.089 308.384 95.3608 308.471 95.7017ZM311.136 99.0852C310.784 99.0852 310.469 98.9953 310.193 98.8153C309.918 98.6335 309.702 98.375 309.545 98.0398C309.39 97.7027 309.312 97.2983 309.312 96.8267C309.312 96.3551 309.391 95.9517 309.548 95.6165C309.707 95.2812 309.925 95.0246 310.201 94.8466C310.478 94.6686 310.791 94.5795 311.142 94.5795C311.412 94.5795 311.63 94.625 311.795 94.7159C311.962 94.8049 312.09 94.9091 312.181 95.0284C312.274 95.1477 312.346 95.2528 312.397 95.3438H312.448V93.1818H313.298V99H312.468V98.321H312.397C312.346 98.4138 312.272 98.5199 312.176 98.6392C312.081 98.7585 311.95 98.8627 311.784 98.9517C311.617 99.0407 311.401 99.0852 311.136 99.0852ZM311.323 98.3608C311.568 98.3608 311.774 98.2964 311.943 98.1676C312.113 98.0369 312.242 97.8561 312.329 97.625C312.418 97.3939 312.463 97.125 312.463 96.8182C312.463 96.5152 312.419 96.25 312.332 96.0227C312.245 95.7955 312.117 95.6184 311.948 95.4915C311.78 95.3646 311.572 95.3011 311.323 95.3011C311.068 95.3011 310.855 95.3674 310.684 95.5C310.514 95.6326 310.385 95.8134 310.298 96.0426C310.213 96.2718 310.17 96.5303 310.17 96.8182C310.17 97.1098 310.214 97.3722 310.301 97.6051C310.388 97.8381 310.517 98.0227 310.687 98.1591C310.859 98.2936 311.072 98.3608 311.323 98.3608ZM315.792 99.0966C315.516 99.0966 315.266 99.0455 315.042 98.9432C314.819 98.839 314.642 98.6884 314.511 98.4915C314.382 98.2945 314.318 98.053 314.318 97.767C314.318 97.5208 314.365 97.3182 314.46 97.1591C314.554 97 314.682 96.8741 314.843 96.7812C315.004 96.6884 315.184 96.6184 315.383 96.571C315.582 96.5237 315.785 96.4877 315.991 96.4631C316.252 96.4328 316.464 96.4081 316.627 96.3892C316.79 96.3684 316.909 96.3352 316.982 96.2898C317.056 96.2443 317.093 96.1705 317.093 96.0682V96.0483C317.093 95.8002 317.023 95.608 316.883 95.4716C316.745 95.3352 316.538 95.267 316.264 95.267C315.978 95.267 315.752 95.3305 315.588 95.4574C315.425 95.5824 315.312 95.7216 315.249 95.875L314.451 95.6932C314.546 95.428 314.684 95.214 314.866 95.0511C315.05 94.8864 315.261 94.767 315.499 94.6932C315.738 94.6174 315.989 94.5795 316.252 94.5795C316.427 94.5795 316.611 94.6004 316.806 94.642C317.003 94.6818 317.187 94.7557 317.357 94.8636C317.53 94.9716 317.671 95.1259 317.781 95.3267C317.891 95.5256 317.946 95.7841 317.946 96.1023V99H317.116V98.4034H317.082C317.027 98.5133 316.945 98.6212 316.835 98.7273C316.725 98.8333 316.584 98.9214 316.411 98.9915C316.239 99.0616 316.033 99.0966 315.792 99.0966ZM315.977 98.4148C316.212 98.4148 316.412 98.3684 316.579 98.2756C316.748 98.1828 316.875 98.0616 316.963 97.9119C317.052 97.7604 317.096 97.5985 317.096 97.4261V96.8636C317.066 96.8939 317.007 96.9223 316.92 96.9489C316.835 96.9735 316.737 96.9953 316.627 97.0142C316.517 97.0312 316.41 97.0473 316.306 97.0625C316.202 97.0758 316.115 97.0871 316.045 97.0966C315.88 97.1174 315.73 97.1525 315.593 97.2017C315.459 97.2509 315.351 97.322 315.269 97.4148C315.19 97.5057 315.15 97.6269 315.15 97.7784C315.15 97.9886 315.228 98.1477 315.383 98.2557C315.538 98.3617 315.736 98.4148 315.977 98.4148ZM319.47 100.636C319.343 100.636 319.227 100.626 319.123 100.605C319.019 100.586 318.941 100.565 318.89 100.543L319.095 99.8466C319.25 99.8883 319.388 99.9063 319.509 99.9006C319.631 99.8949 319.738 99.8494 319.83 99.7642C319.925 99.679 320.008 99.5398 320.08 99.3466L320.185 99.0568L318.589 94.6364H319.498L320.603 98.0227H320.649L321.754 94.6364H322.666L320.867 99.5824C320.784 99.8097 320.678 100.002 320.549 100.159C320.42 100.318 320.267 100.438 320.089 100.517C319.911 100.597 319.704 100.636 319.47 100.636Z" fill="#9B9B9B"/>
<path d="M392.812 93.7102C392.782 93.4413 392.657 93.233 392.438 93.0852C392.218 92.9356 391.941 92.8608 391.608 92.8608C391.369 92.8608 391.163 92.8987 390.989 92.9744C390.814 93.0483 390.679 93.1506 390.582 93.2812C390.488 93.41 390.44 93.5568 390.44 93.7216C390.44 93.8598 390.473 93.9792 390.537 94.0795C390.603 94.1799 390.689 94.2642 390.795 94.3324C390.903 94.3987 391.019 94.4545 391.142 94.5C391.265 94.5436 391.384 94.5795 391.497 94.608L392.065 94.7557C392.251 94.8011 392.441 94.8627 392.636 94.9403C392.831 95.018 393.012 95.1203 393.179 95.2472C393.346 95.3741 393.48 95.5312 393.582 95.7188C393.687 95.9062 393.739 96.1307 393.739 96.392C393.739 96.7216 393.653 97.0142 393.483 97.2699C393.314 97.5256 393.069 97.7273 392.747 97.875C392.427 98.0227 392.04 98.0966 391.585 98.0966C391.15 98.0966 390.773 98.0275 390.455 97.8892C390.136 97.7509 389.887 97.5549 389.707 97.3011C389.527 97.0455 389.428 96.7424 389.409 96.392H390.29C390.307 96.6023 390.375 96.7775 390.494 96.9176C390.616 97.0559 390.77 97.1591 390.957 97.2273C391.147 97.2936 391.354 97.3267 391.58 97.3267C391.828 97.3267 392.048 97.2879 392.241 97.2102C392.437 97.1307 392.59 97.0208 392.702 96.8807C392.813 96.7386 392.869 96.5729 392.869 96.3835C392.869 96.2112 392.82 96.0701 392.722 95.9602C392.625 95.8504 392.493 95.7595 392.327 95.6875C392.162 95.6155 391.975 95.5521 391.767 95.4972L391.08 95.3097C390.614 95.1828 390.244 94.9962 389.972 94.75C389.701 94.5038 389.565 94.178 389.565 93.7727C389.565 93.4375 389.656 93.1449 389.838 92.8949C390.02 92.6449 390.266 92.4508 390.577 92.3125C390.887 92.1723 391.238 92.1023 391.628 92.1023C392.022 92.1023 392.369 92.1714 392.67 92.3097C392.973 92.4479 393.212 92.6383 393.386 92.8807C393.561 93.1212 393.652 93.3977 393.659 93.7102H392.812ZM397.496 96.1903V93.6364H398.348V98H397.513V97.2443H397.467C397.367 97.4773 397.206 97.6714 396.984 97.8267C396.765 97.9801 396.491 98.0568 396.163 98.0568C395.883 98.0568 395.635 97.9953 395.419 97.8722C395.205 97.7472 395.036 97.5625 394.913 97.3182C394.792 97.0739 394.731 96.7718 394.731 96.4119V93.6364H395.581V96.3097C395.581 96.607 395.663 96.8437 395.828 97.0199C395.993 97.196 396.207 97.2841 396.47 97.2841C396.629 97.2841 396.787 97.2443 396.945 97.1648C397.104 97.0852 397.235 96.965 397.339 96.804C397.445 96.643 397.498 96.4384 397.496 96.1903ZM400.351 95.4091V98H399.501V93.6364H400.317V94.3466H400.371C400.471 94.1155 400.628 93.9299 400.842 93.7898C401.058 93.6496 401.33 93.5795 401.658 93.5795C401.955 93.5795 402.215 93.642 402.439 93.767C402.662 93.8902 402.836 94.0739 402.959 94.3182C403.082 94.5625 403.143 94.8646 403.143 95.2244V98H402.294V95.3267C402.294 95.0104 402.212 94.7633 402.047 94.5852C401.882 94.4053 401.656 94.3153 401.368 94.3153C401.171 94.3153 400.996 94.358 400.842 94.4432C400.691 94.5284 400.57 94.6534 400.481 94.8182C400.394 94.9811 400.351 95.178 400.351 95.4091ZM405.928 98.0852C405.576 98.0852 405.261 97.9953 404.985 97.8153C404.71 97.6335 404.494 97.375 404.337 97.0398C404.182 96.7027 404.104 96.2983 404.104 95.8267C404.104 95.3551 404.183 94.9517 404.34 94.6165C404.499 94.2812 404.717 94.0246 404.993 93.8466C405.27 93.6686 405.583 93.5795 405.934 93.5795C406.205 93.5795 406.422 93.625 406.587 93.7159C406.754 93.8049 406.883 93.9091 406.974 94.0284C407.066 94.1477 407.138 94.2528 407.189 94.3438H407.241V92.1818H408.09V98H407.26V97.321H407.189C407.138 97.4138 407.064 97.5199 406.968 97.6392C406.873 97.7585 406.742 97.8627 406.576 97.9517C406.409 98.0407 406.193 98.0852 405.928 98.0852ZM406.116 97.3608C406.36 97.3608 406.566 97.2964 406.735 97.1676C406.905 97.0369 407.034 96.8561 407.121 96.625C407.21 96.3939 407.255 96.125 407.255 95.8182C407.255 95.5152 407.211 95.25 407.124 95.0227C407.037 94.7955 406.909 94.6184 406.741 94.4915C406.572 94.3646 406.364 94.3011 406.116 94.3011C405.86 94.3011 405.647 94.3674 405.476 94.5C405.306 94.6326 405.177 94.8134 405.09 95.0426C405.005 95.2718 404.962 95.5303 404.962 95.8182C404.962 96.1098 405.006 96.3722 405.093 96.6051C405.18 96.8381 405.309 97.0227 405.479 97.1591C405.652 97.2936 405.864 97.3608 406.116 97.3608ZM410.584 98.0966C410.308 98.0966 410.058 98.0455 409.834 97.9432C409.611 97.839 409.434 97.6884 409.303 97.4915C409.174 97.2945 409.11 97.053 409.11 96.767C409.11 96.5208 409.157 96.3182 409.252 96.1591C409.347 96 409.474 95.8741 409.635 95.7812C409.796 95.6884 409.976 95.6184 410.175 95.571C410.374 95.5237 410.577 95.4877 410.783 95.4631C411.044 95.4328 411.257 95.4081 411.419 95.3892C411.582 95.3684 411.701 95.3352 411.775 95.2898C411.848 95.2443 411.885 95.1705 411.885 95.0682V95.0483C411.885 94.8002 411.815 94.608 411.675 94.4716C411.537 94.3352 411.33 94.267 411.056 94.267C410.77 94.267 410.544 94.3305 410.38 94.4574C410.217 94.5824 410.104 94.7216 410.042 94.875L409.243 94.6932C409.338 94.428 409.476 94.214 409.658 94.0511C409.842 93.8864 410.053 93.767 410.292 93.6932C410.53 93.6174 410.781 93.5795 411.044 93.5795C411.219 93.5795 411.403 93.6004 411.598 93.642C411.795 93.6818 411.979 93.7557 412.15 93.8636C412.322 93.9716 412.463 94.1259 412.573 94.3267C412.683 94.5256 412.738 94.7841 412.738 95.1023V98H411.908V97.4034H411.874C411.819 97.5133 411.737 97.6212 411.627 97.7273C411.517 97.8333 411.376 97.9214 411.204 97.9915C411.031 98.0616 410.825 98.0966 410.584 98.0966ZM410.769 97.4148C411.004 97.4148 411.204 97.3684 411.371 97.2756C411.54 97.1828 411.668 97.0616 411.755 96.9119C411.844 96.7604 411.888 96.5985 411.888 96.4261V95.8636C411.858 95.8939 411.799 95.9223 411.712 95.9489C411.627 95.9735 411.529 95.9953 411.419 96.0142C411.31 96.0312 411.203 96.0473 411.098 96.0625C410.994 96.0758 410.907 96.0871 410.837 96.0966C410.672 96.1174 410.522 96.1525 410.385 96.2017C410.251 96.2509 410.143 96.322 410.061 96.4148C409.982 96.5057 409.942 96.6269 409.942 96.7784C409.942 96.9886 410.02 97.1477 410.175 97.2557C410.33 97.3617 410.528 97.4148 410.769 97.4148ZM414.262 99.6364C414.135 99.6364 414.019 99.6259 413.915 99.6051C413.811 99.5862 413.733 99.5653 413.682 99.5426L413.887 98.8466C414.042 98.8883 414.18 98.9063 414.301 98.9006C414.423 98.8949 414.53 98.8494 414.622 98.7642C414.717 98.679 414.801 98.5398 414.872 98.3466L414.978 98.0568L413.381 93.6364H414.29L415.395 97.0227H415.441L416.546 93.6364H417.458L415.659 98.5824C415.576 98.8097 415.47 99.0019 415.341 99.1591C415.212 99.3182 415.059 99.4375 414.881 99.517C414.703 99.5966 414.497 99.6364 414.262 99.6364Z" fill="#9B9B9B"/>
<path d="M184.639 92.1818H185.705L187.557 96.7045H187.625L189.477 92.1818H190.543V98H189.707V93.7898H189.653L187.938 97.9915H187.244L185.528 93.7869H185.474V98H184.639V92.1818ZM193.601 98.0881C193.192 98.0881 192.835 97.9943 192.53 97.8068C192.225 97.6193 191.988 97.357 191.82 97.0199C191.651 96.6828 191.567 96.2888 191.567 95.8381C191.567 95.3854 191.651 94.9896 191.82 94.6506C191.988 94.3116 192.225 94.0483 192.53 93.8608C192.835 93.6733 193.192 93.5795 193.601 93.5795C194.01 93.5795 194.367 93.6733 194.672 93.8608C194.977 94.0483 195.213 94.3116 195.382 94.6506C195.551 94.9896 195.635 95.3854 195.635 95.8381C195.635 96.2888 195.551 96.6828 195.382 97.0199C195.213 97.357 194.977 97.6193 194.672 97.8068C194.367 97.9943 194.01 98.0881 193.601 98.0881ZM193.604 97.375C193.869 97.375 194.088 97.3049 194.263 97.1648C194.437 97.0246 194.566 96.8381 194.649 96.6051C194.734 96.3722 194.777 96.1155 194.777 95.8352C194.777 95.5568 194.734 95.3011 194.649 95.0682C194.566 94.8333 194.437 94.6449 194.263 94.5028C194.088 94.3608 193.869 94.2898 193.604 94.2898C193.337 94.2898 193.115 94.3608 192.939 94.5028C192.765 94.6449 192.635 94.8333 192.55 95.0682C192.466 95.3011 192.425 95.5568 192.425 95.8352C192.425 96.1155 192.466 96.3722 192.55 96.6051C192.635 96.8381 192.765 97.0246 192.939 97.1648C193.115 97.3049 193.337 97.375 193.604 97.375ZM197.444 95.4091V98H196.595V93.6364H197.41V94.3466H197.464C197.565 94.1155 197.722 93.9299 197.936 93.7898C198.152 93.6496 198.424 93.5795 198.751 93.5795C199.049 93.5795 199.309 93.642 199.533 93.767C199.756 93.8902 199.929 94.0739 200.052 94.3182C200.176 94.5625 200.237 94.8646 200.237 95.2244V98H199.388V95.3267C199.388 95.0104 199.305 94.7633 199.14 94.5852C198.976 94.4053 198.749 94.3153 198.462 94.3153C198.265 94.3153 198.089 94.358 197.936 94.4432C197.784 94.5284 197.664 94.6534 197.575 94.8182C197.488 94.9811 197.444 95.178 197.444 95.4091ZM203.022 98.0852C202.67 98.0852 202.355 97.9953 202.079 97.8153C201.804 97.6335 201.588 97.375 201.431 97.0398C201.276 96.7027 201.198 96.2983 201.198 95.8267C201.198 95.3551 201.277 94.9517 201.434 94.6165C201.593 94.2812 201.811 94.0246 202.087 93.8466C202.364 93.6686 202.677 93.5795 203.027 93.5795C203.298 93.5795 203.516 93.625 203.681 93.7159C203.848 93.8049 203.976 93.9091 204.067 94.0284C204.16 94.1477 204.232 94.2528 204.283 94.3438H204.334V92.1818H205.184V98H204.354V97.321H204.283C204.232 97.4138 204.158 97.5199 204.062 97.6392C203.967 97.7585 203.836 97.8627 203.67 97.9517C203.503 98.0407 203.287 98.0852 203.022 98.0852ZM203.209 97.3608C203.454 97.3608 203.66 97.2964 203.829 97.1676C203.999 97.0369 204.128 96.8561 204.215 96.625C204.304 96.3939 204.348 96.125 204.348 95.8182C204.348 95.5152 204.305 95.25 204.218 95.0227C204.131 94.7955 204.003 94.6184 203.834 94.4915C203.666 94.3646 203.457 94.3011 203.209 94.3011C202.954 94.3011 202.741 94.3674 202.57 94.5C202.4 94.6326 202.271 94.8134 202.184 95.0426C202.098 95.2718 202.056 95.5303 202.056 95.8182C202.056 96.1098 202.099 96.3722 202.187 96.6051C202.274 96.8381 202.402 97.0227 202.573 97.1591C202.745 97.2936 202.957 97.3608 203.209 97.3608ZM207.678 98.0966C207.401 98.0966 207.151 98.0455 206.928 97.9432C206.704 97.839 206.527 97.6884 206.397 97.4915C206.268 97.2945 206.204 97.053 206.204 96.767C206.204 96.5208 206.251 96.3182 206.346 96.1591C206.44 96 206.568 95.8741 206.729 95.7812C206.89 95.6884 207.07 95.6184 207.269 95.571C207.468 95.5237 207.67 95.4877 207.877 95.4631C208.138 95.4328 208.35 95.4081 208.513 95.3892C208.676 95.3684 208.794 95.3352 208.868 95.2898C208.942 95.2443 208.979 95.1705 208.979 95.0682V95.0483C208.979 94.8002 208.909 94.608 208.769 94.4716C208.631 94.3352 208.424 94.267 208.15 94.267C207.864 94.267 207.638 94.3305 207.473 94.4574C207.311 94.5824 207.198 94.7216 207.135 94.875L206.337 94.6932C206.432 94.428 206.57 94.214 206.752 94.0511C206.936 93.8864 207.147 93.767 207.385 93.6932C207.624 93.6174 207.875 93.5795 208.138 93.5795C208.312 93.5795 208.497 93.6004 208.692 93.642C208.889 93.6818 209.073 93.7557 209.243 93.8636C209.416 93.9716 209.557 94.1259 209.667 94.3267C209.776 94.5256 209.831 94.7841 209.831 95.1023V98H209.002V97.4034H208.968C208.913 97.5133 208.83 97.6212 208.721 97.7273C208.611 97.8333 208.47 97.9214 208.297 97.9915C208.125 98.0616 207.919 98.0966 207.678 98.0966ZM207.863 97.4148C208.097 97.4148 208.298 97.3684 208.465 97.2756C208.633 97.1828 208.761 97.0616 208.848 96.9119C208.937 96.7604 208.982 96.5985 208.982 96.4261V95.8636C208.952 95.8939 208.893 95.9223 208.806 95.9489C208.721 95.9735 208.623 95.9953 208.513 96.0142C208.403 96.0312 208.296 96.0473 208.192 96.0625C208.088 96.0758 208.001 96.0871 207.931 96.0966C207.766 96.1174 207.615 96.1525 207.479 96.2017C207.345 96.2509 207.237 96.322 207.155 96.4148C207.076 96.5057 207.036 96.6269 207.036 96.7784C207.036 96.9886 207.114 97.1477 207.269 97.2557C207.424 97.3617 207.622 97.4148 207.863 97.4148ZM211.355 99.6364C211.229 99.6364 211.113 99.6259 211.009 99.6051C210.905 99.5862 210.827 99.5653 210.776 99.5426L210.98 98.8466C211.136 98.8883 211.274 98.9063 211.395 98.9006C211.516 98.8949 211.623 98.8494 211.716 98.7642C211.811 98.679 211.894 98.5398 211.966 98.3466L212.071 98.0568L210.475 93.6364H211.384L212.489 97.0227H212.534L213.64 93.6364H214.551L212.753 98.5824C212.67 98.8097 212.564 99.0019 212.435 99.1591C212.306 99.3182 212.153 99.4375 211.975 99.517C211.797 99.5966 211.59 99.6364 211.355 99.6364Z" fill="#9B9B9B"/>
<path d="M15.9815 22H14.294L17.3665 13.2727H19.3182L22.3949 22H20.7074L18.3764 15.0625H18.3082L15.9815 22ZM16.0369 18.5781H20.6392V19.848H16.0369V18.5781ZM28.5205 15.4545L26.1895 22H24.485L22.154 15.4545H23.7989L25.3032 20.3168H25.3713L26.8799 15.4545H28.5205ZM32.2299 24.5909C31.6759 24.5909 31.2001 24.5156 30.8023 24.3651C30.4046 24.2173 30.085 24.0185 29.8435 23.7685C29.6021 23.5185 29.4344 23.2415 29.3407 22.9375L30.7299 22.6009C30.7924 22.7287 30.8833 22.8551 31.0026 22.9801C31.1219 23.108 31.2824 23.2131 31.4842 23.2955C31.6887 23.3807 31.9458 23.4233 32.2555 23.4233C32.693 23.4233 33.0552 23.3168 33.3421 23.1037C33.629 22.8935 33.7725 22.5469 33.7725 22.0639V20.8239H33.6958C33.6163 20.983 33.4998 21.1463 33.3464 21.3139C33.1958 21.4815 32.9955 21.6222 32.7455 21.7358C32.4984 21.8494 32.1873 21.9062 31.8123 21.9062C31.3094 21.9062 30.8535 21.7884 30.4444 21.5526C30.0381 21.3139 29.7143 20.9588 29.4728 20.4872C29.2342 20.0128 29.1148 19.419 29.1148 18.706C29.1148 17.9872 29.2342 17.3807 29.4728 16.8864C29.7143 16.3892 30.0396 16.0128 30.4486 15.7571C30.8577 15.4986 31.3137 15.3693 31.8165 15.3693C32.2001 15.3693 32.5154 15.4347 32.7626 15.5653C33.0126 15.6932 33.2114 15.848 33.3592 16.0298C33.5069 16.2088 33.6191 16.3778 33.6958 16.5369H33.781V15.4545H35.3023V22.1065C35.3023 22.6662 35.1688 23.1293 34.9018 23.4957C34.6347 23.8622 34.2697 24.1364 33.8066 24.3182C33.3435 24.5 32.818 24.5909 32.2299 24.5909ZM32.2427 20.696C32.5694 20.696 32.8478 20.6165 33.0779 20.4574C33.308 20.2983 33.4827 20.0696 33.6021 19.7713C33.7214 19.473 33.781 19.1151 33.781 18.6974C33.781 18.2855 33.7214 17.9247 33.6021 17.6151C33.4856 17.3054 33.3123 17.0653 33.0822 16.8949C32.8549 16.7216 32.5751 16.6349 32.2427 16.6349C31.8989 16.6349 31.612 16.7244 31.3819 16.9034C31.1518 17.0824 30.9785 17.3281 30.862 17.6406C30.7455 17.9503 30.6873 18.3026 30.6873 18.6974C30.6873 19.098 30.7455 19.4489 30.862 19.75C30.9813 20.0483 31.156 20.2812 31.3861 20.4489C31.6191 20.6136 31.9046 20.696 32.2427 20.696ZM37.8516 22.0938C37.5931 22.0938 37.3715 22.0028 37.1868 21.821C37.0022 21.6392 36.9112 21.4176 36.9141 21.1562C36.9112 20.9006 37.0022 20.6818 37.1868 20.5C37.3715 20.3182 37.5931 20.2273 37.8516 20.2273C38.1016 20.2273 38.3189 20.3182 38.5036 20.5C38.6911 20.6818 38.7862 20.9006 38.7891 21.1562C38.7862 21.3295 38.7408 21.4872 38.6527 21.6293C38.5675 21.7713 38.4539 21.8849 38.3118 21.9702C38.1726 22.0526 38.0192 22.0938 37.8516 22.0938ZM42.8095 14.598V13.2727H49.7725V14.598H47.0751V22H45.5069V14.598H42.8095ZM51.0647 22V15.4545H52.6073V22H51.0647ZM51.8402 14.5256C51.5959 14.5256 51.3857 14.4446 51.2096 14.2827C51.0334 14.1179 50.9454 13.9205 50.9454 13.6903C50.9454 13.4574 51.0334 13.2599 51.2096 13.098C51.3857 12.9332 51.5959 12.8509 51.8402 12.8509C52.0874 12.8509 52.2976 12.9332 52.4709 13.098C52.6471 13.2599 52.7351 13.4574 52.7351 13.6903C52.7351 13.9205 52.6471 14.1179 52.4709 14.2827C52.2976 14.4446 52.0874 14.5256 51.8402 14.5256ZM54.2116 22V15.4545H55.686V16.5668H55.7627C55.8991 16.1918 56.1249 15.8991 56.4403 15.6889C56.7556 15.4759 57.132 15.3693 57.5695 15.3693C58.0127 15.3693 58.3863 15.4773 58.6903 15.6932C58.9971 15.9062 59.213 16.1974 59.338 16.5668H59.4062C59.5511 16.2031 59.7954 15.9134 60.1391 15.6974C60.4857 15.4787 60.8962 15.3693 61.3707 15.3693C61.9729 15.3693 62.4644 15.5597 62.8451 15.9403C63.2258 16.321 63.4161 16.8764 63.4161 17.6065V22H61.8693V17.8452C61.8693 17.4389 61.7613 17.142 61.5454 16.9545C61.3295 16.7642 61.0653 16.669 60.7528 16.669C60.3806 16.669 60.0894 16.7855 59.8792 17.0185C59.6718 17.2486 59.5681 17.5483 59.5681 17.9176V22H58.0553V17.7812C58.0553 17.4432 57.9531 17.1733 57.7485 16.9716C57.5468 16.7699 57.2826 16.669 56.9559 16.669C56.7343 16.669 56.5326 16.7259 56.3508 16.8395C56.169 16.9503 56.0241 17.108 55.9161 17.3125C55.8082 17.5142 55.7542 17.75 55.7542 18.0199V22H54.2116ZM67.8968 22.1278C67.2406 22.1278 66.6738 21.9915 66.1966 21.7188C65.7221 21.4432 65.3571 21.054 65.1014 20.5511C64.8457 20.0455 64.7179 19.4503 64.7179 18.7656C64.7179 18.0923 64.8457 17.5014 65.1014 16.9929C65.3599 16.4815 65.7207 16.0838 66.1838 15.7997C66.6468 15.5128 67.1909 15.3693 67.8159 15.3693C68.2193 15.3693 68.6 15.4347 68.9579 15.5653C69.3187 15.6932 69.6369 15.892 69.9125 16.1619C70.1909 16.4318 70.4096 16.7756 70.5687 17.1932C70.7278 17.608 70.8074 18.1023 70.8074 18.6761V19.1491H65.4423V18.1094H69.3287C69.3258 17.8139 69.2619 17.5511 69.1369 17.321C69.0119 17.0881 68.8372 16.9048 68.6128 16.7713C68.3912 16.6378 68.1326 16.571 67.8372 16.571C67.5218 16.571 67.2449 16.6477 67.0062 16.8011C66.7676 16.9517 66.5815 17.1506 66.448 17.3977C66.3173 17.642 66.2505 17.9105 66.2477 18.2031V19.1108C66.2477 19.4915 66.3173 19.8182 66.4565 20.0909C66.5957 20.3608 66.7903 20.5682 67.0403 20.7131C67.2903 20.8551 67.5829 20.9261 67.9181 20.9261C68.1426 20.9261 68.3457 20.8949 68.5275 20.8324C68.7093 20.767 68.867 20.6719 69.0005 20.5469C69.1341 20.4219 69.2349 20.267 69.3031 20.0824L70.7434 20.2443C70.6525 20.625 70.4792 20.9574 70.2235 21.2415C69.9707 21.5227 69.6468 21.7415 69.252 21.8977C68.8571 22.0511 68.4054 22.1278 67.8968 22.1278ZM78.3934 15.4545V16.6477H74.6306V15.4545H78.3934ZM75.5596 13.8864H77.1022V20.0312C77.1022 20.2386 77.1335 20.3977 77.196 20.5085C77.2613 20.6165 77.3465 20.6903 77.4517 20.7301C77.5568 20.7699 77.6733 20.7898 77.8011 20.7898C77.8977 20.7898 77.9858 20.7827 78.0653 20.7685C78.1477 20.7543 78.2102 20.7415 78.2528 20.7301L78.5127 21.9361C78.4304 21.9645 78.3125 21.9957 78.159 22.0298C78.0085 22.0639 77.8238 22.0838 77.6051 22.0895C77.2187 22.1009 76.8707 22.0426 76.561 21.9148C76.2514 21.7841 76.0056 21.5824 75.8238 21.3097C75.6448 21.0369 75.5568 20.696 75.5596 20.2869V13.8864ZM82.4864 22.1278C81.8471 22.1278 81.2932 21.9872 80.8244 21.706C80.3557 21.4247 79.992 21.0312 79.7335 20.5256C79.4778 20.0199 79.35 19.429 79.35 18.7528C79.35 18.0767 79.4778 17.4844 79.7335 16.9759C79.992 16.4673 80.3557 16.0724 80.8244 15.7912C81.2932 15.5099 81.8471 15.3693 82.4864 15.3693C83.1256 15.3693 83.6795 15.5099 84.1483 15.7912C84.617 16.0724 84.9792 16.4673 85.2349 16.9759C85.4935 17.4844 85.6227 18.0767 85.6227 18.7528C85.6227 19.429 85.4935 20.0199 85.2349 20.5256C84.9792 21.0312 84.617 21.4247 84.1483 21.706C83.6795 21.9872 83.1256 22.1278 82.4864 22.1278ZM82.4949 20.892C82.8415 20.892 83.1312 20.7969 83.3642 20.6065C83.5971 20.4134 83.7704 20.1548 83.8841 19.831C84.0006 19.5071 84.0588 19.1463 84.0588 18.7486C84.0588 18.348 84.0006 17.9858 83.8841 17.6619C83.7704 17.3352 83.5971 17.0753 83.3642 16.8821C83.1312 16.6889 82.8415 16.5923 82.4949 16.5923C82.1398 16.5923 81.8443 16.6889 81.6085 16.8821C81.3756 17.0753 81.2008 17.3352 81.0844 17.6619C80.9707 17.9858 80.9139 18.348 80.9139 18.7486C80.9139 19.1463 80.9707 19.5071 81.0844 19.831C81.2008 20.1548 81.3756 20.4134 81.6085 20.6065C81.8443 20.7969 82.1398 20.892 82.4949 20.892ZM91.1335 22H89.446L92.5184 13.2727H94.4702L97.5469 22H95.8594L93.5284 15.0625H93.4602L91.1335 22ZM91.1889 18.5781H95.7912V19.848H91.1889V18.5781ZM98.6462 24.4545V15.4545H100.163V16.5369H100.253C100.332 16.3778 100.444 16.2088 100.589 16.0298C100.734 15.848 100.93 15.6932 101.177 15.5653C101.425 15.4347 101.74 15.3693 102.123 15.3693C102.629 15.3693 103.085 15.4986 103.491 15.7571C103.9 16.0128 104.224 16.392 104.463 16.8949C104.704 17.3949 104.825 18.0085 104.825 18.7358C104.825 19.4545 104.707 20.0653 104.471 20.5682C104.236 21.071 103.915 21.4545 103.508 21.7188C103.102 21.983 102.642 22.1151 102.128 22.1151C101.753 22.1151 101.442 22.0526 101.194 21.9276C100.947 21.8026 100.748 21.652 100.598 21.4759C100.45 21.2969 100.335 21.1278 100.253 20.9688H100.189V24.4545H98.6462ZM100.159 18.7273C100.159 19.1506 100.219 19.5213 100.338 19.8395C100.46 20.1577 100.635 20.4062 100.862 20.5852C101.092 20.7614 101.371 20.8494 101.697 20.8494C102.038 20.8494 102.324 20.7585 102.554 20.5767C102.784 20.392 102.957 20.1406 103.074 19.8224C103.193 19.5014 103.253 19.1364 103.253 18.7273C103.253 18.321 103.194 17.9602 103.078 17.6449C102.962 17.3295 102.788 17.0824 102.558 16.9034C102.328 16.7244 102.041 16.6349 101.697 16.6349C101.368 16.6349 101.088 16.7216 100.858 16.8949C100.628 17.0682 100.453 17.3111 100.334 17.6236C100.217 17.9361 100.159 18.304 100.159 18.7273ZM106.164 24.4545V15.4545H107.681V16.5369H107.771C107.85 16.3778 107.962 16.2088 108.107 16.0298C108.252 15.848 108.448 15.6932 108.695 15.5653C108.943 15.4347 109.258 15.3693 109.641 15.3693C110.147 15.3693 110.603 15.4986 111.009 15.7571C111.418 16.0128 111.742 16.392 111.981 16.8949C112.222 17.3949 112.343 18.0085 112.343 18.7358C112.343 19.4545 112.225 20.0653 111.989 20.5682C111.754 21.071 111.433 21.4545 111.026 21.7188C110.62 21.983 110.16 22.1151 109.646 22.1151C109.271 22.1151 108.96 22.0526 108.712 21.9276C108.465 21.8026 108.266 21.652 108.116 21.4759C107.968 21.2969 107.853 21.1278 107.771 20.9688H107.707V24.4545H106.164ZM107.677 18.7273C107.677 19.1506 107.737 19.5213 107.856 19.8395C107.978 20.1577 108.153 20.4062 108.38 20.5852C108.61 20.7614 108.889 20.8494 109.215 20.8494C109.556 20.8494 109.842 20.7585 110.072 20.5767C110.302 20.392 110.475 20.1406 110.592 19.8224C110.711 19.5014 110.771 19.1364 110.771 18.7273C110.771 18.321 110.712 17.9602 110.596 17.6449C110.48 17.3295 110.306 17.0824 110.076 16.9034C109.846 16.7244 109.559 16.6349 109.215 16.6349C108.886 16.6349 108.606 16.7216 108.376 16.8949C108.146 17.0682 107.971 17.3111 107.852 17.6236C107.735 17.9361 107.677 18.304 107.677 18.7273ZM113.682 22V15.4545H115.178V16.5455H115.246C115.365 16.1676 115.57 15.8764 115.86 15.6719C116.152 15.4645 116.486 15.3608 116.861 15.3608C116.946 15.3608 117.042 15.3651 117.147 15.3736C117.255 15.3793 117.344 15.3892 117.415 15.4034V16.8224C117.35 16.7997 117.246 16.7798 117.104 16.7628C116.965 16.7429 116.83 16.733 116.699 16.733C116.418 16.733 116.165 16.794 115.941 16.9162C115.719 17.0355 115.544 17.2017 115.417 17.4148C115.289 17.6278 115.225 17.8736 115.225 18.152V22H113.682ZM121.044 22.1278C120.404 22.1278 119.85 21.9872 119.382 21.706C118.913 21.4247 118.549 21.0312 118.291 20.5256C118.035 20.0199 117.907 19.429 117.907 18.7528C117.907 18.0767 118.035 17.4844 118.291 16.9759C118.549 16.4673 118.913 16.0724 119.382 15.7912C119.85 15.5099 120.404 15.3693 121.044 15.3693C121.683 15.3693 122.237 15.5099 122.706 15.7912C123.174 16.0724 123.536 16.4673 123.792 16.9759C124.051 17.4844 124.18 18.0767 124.18 18.7528C124.18 19.429 124.051 20.0199 123.792 20.5256C123.536 21.0312 123.174 21.4247 122.706 21.706C122.237 21.9872 121.683 22.1278 121.044 22.1278ZM121.052 20.892C121.399 20.892 121.688 20.7969 121.921 20.6065C122.154 20.4134 122.328 20.1548 122.441 19.831C122.558 19.5071 122.616 19.1463 122.616 18.7486C122.616 18.348 122.558 17.9858 122.441 17.6619C122.328 17.3352 122.154 17.0753 121.921 16.8821C121.688 16.6889 121.399 16.5923 121.052 16.5923C120.697 16.5923 120.402 16.6889 120.166 16.8821C119.933 17.0753 119.758 17.3352 119.642 17.6619C119.528 17.9858 119.471 18.348 119.471 18.7486C119.471 19.1463 119.528 19.5071 119.642 19.831C119.758 20.1548 119.933 20.4134 120.166 20.6065C120.402 20.7969 120.697 20.892 121.052 20.892ZM131.131 15.4545L128.8 22H127.096L124.765 15.4545H126.41L127.914 20.3168H127.982L129.491 15.4545H131.131ZM134.892 22.1278C134.235 22.1278 133.669 21.9915 133.191 21.7188C132.717 21.4432 132.352 21.054 132.096 20.5511C131.841 20.0455 131.713 19.4503 131.713 18.7656C131.713 18.0923 131.841 17.5014 132.096 16.9929C132.355 16.4815 132.716 16.0838 133.179 15.7997C133.642 15.5128 134.186 15.3693 134.811 15.3693C135.214 15.3693 135.595 15.4347 135.953 15.5653C136.314 15.6932 136.632 15.892 136.907 16.1619C137.186 16.4318 137.405 16.7756 137.564 17.1932C137.723 17.608 137.802 18.1023 137.802 18.6761V19.1491H132.437V18.1094H136.324C136.321 17.8139 136.257 17.5511 136.132 17.321C136.007 17.0881 135.832 16.9048 135.608 16.7713C135.386 16.6378 135.128 16.571 134.832 16.571C134.517 16.571 134.24 16.6477 134.001 16.8011C133.762 16.9517 133.576 17.1506 133.443 17.3977C133.312 17.642 133.245 17.9105 133.243 18.2031V19.1108C133.243 19.4915 133.312 19.8182 133.451 20.0909C133.591 20.3608 133.785 20.5682 134.035 20.7131C134.285 20.8551 134.578 20.9261 134.913 20.9261C135.137 20.9261 135.341 20.8949 135.522 20.8324C135.704 20.767 135.862 20.6719 135.995 20.5469C136.129 20.4219 136.23 20.267 136.298 20.0824L137.738 20.2443C137.647 20.625 137.474 20.9574 137.218 21.2415C136.966 21.5227 136.642 21.7415 136.247 21.8977C135.852 22.0511 135.4 22.1278 134.892 22.1278Z" fill="black"/>
<path d="M25.5341 51.7273V75H21.3182V55.8295H21.1818L15.7386 59.3068V55.4432L21.5227 51.7273H25.5341ZM39.7639 75.3182C38.0745 75.3182 36.5745 75.0341 35.2639 74.4659C33.9609 73.8977 32.9382 73.1212 32.1957 72.1364C31.4609 71.1439 31.0972 70.0189 31.1048 68.7614C31.0972 67.7841 31.3094 66.8864 31.7412 66.0682C32.173 65.25 32.7563 64.5682 33.4912 64.0227C34.2336 63.4697 35.0594 63.1174 35.9685 62.9659V62.8068C34.7715 62.5417 33.8018 61.9318 33.0594 60.9773C32.3245 60.0152 31.9609 58.9053 31.9685 57.6477C31.9609 56.4508 32.2942 55.3826 32.9685 54.4432C33.6427 53.5038 34.5669 52.7652 35.7412 52.2273C36.9154 51.6818 38.2563 51.4091 39.7639 51.4091C41.2563 51.4091 42.5859 51.6818 43.7525 52.2273C44.9268 52.7652 45.851 53.5038 46.5253 54.4432C47.2071 55.3826 47.548 56.4508 47.548 57.6477C47.548 58.9053 47.173 60.0152 46.423 60.9773C45.6806 61.9318 44.7222 62.5417 43.548 62.8068V62.9659C44.4571 63.1174 45.2753 63.4697 46.0025 64.0227C46.7374 64.5682 47.3207 65.25 47.7525 66.0682C48.1919 66.8864 48.4116 67.7841 48.4116 68.7614C48.4116 70.0189 48.0404 71.1439 47.298 72.1364C46.5556 73.1212 45.5328 73.8977 44.2298 74.4659C42.9344 75.0341 41.4457 75.3182 39.7639 75.3182ZM39.7639 72.0682C40.6351 72.0682 41.3927 71.9205 42.0366 71.625C42.6806 71.322 43.1806 70.8977 43.5366 70.3523C43.8927 69.8068 44.0745 69.178 44.0821 68.4659C44.0745 67.7235 43.8813 67.0682 43.5025 66.5C43.1313 65.9242 42.62 65.4735 41.9685 65.1477C41.3245 64.822 40.5897 64.6591 39.7639 64.6591C38.9306 64.6591 38.1882 64.822 37.5366 65.1477C36.8851 65.4735 36.37 65.9242 35.9912 66.5C35.62 67.0682 35.4382 67.7235 35.4457 68.4659C35.4382 69.178 35.6124 69.8068 35.9685 70.3523C36.3245 70.8902 36.8245 71.3106 37.4685 71.6136C38.12 71.9167 38.8851 72.0682 39.7639 72.0682ZM39.7639 61.4659C40.476 61.4659 41.1048 61.322 41.6503 61.0341C42.2033 60.7462 42.6389 60.3447 42.9571 59.8295C43.2753 59.3144 43.4382 58.7197 43.4457 58.0455C43.4382 57.3788 43.2791 56.7955 42.9685 56.2955C42.6578 55.7879 42.226 55.3977 41.673 55.125C41.12 54.8447 40.4836 54.7045 39.7639 54.7045C39.0291 54.7045 38.3813 54.8447 37.8207 55.125C37.2677 55.3977 36.8359 55.7879 36.5253 56.2955C36.2222 56.7955 36.0745 57.3788 36.0821 58.0455C36.0745 58.7197 36.226 59.3144 36.5366 59.8295C36.8548 60.3371 37.2904 60.7386 37.8435 61.0341C38.4041 61.322 39.0442 61.4659 39.7639 61.4659Z" fill="#1773B0"/>
<path d="M59.2614 67.2273V75H56.7131V57.5455H59.2273V64.0398H59.3892C59.696 63.3352 60.1648 62.7756 60.7955 62.3608C61.4261 61.946 62.25 61.7386 63.267 61.7386C64.1648 61.7386 64.9489 61.9233 65.6193 62.2926C66.2955 62.6619 66.8182 63.2131 67.1875 63.946C67.5625 64.6733 67.75 65.5824 67.75 66.6733V75H65.2017V66.9801C65.2017 66.0199 64.9545 65.2756 64.4602 64.7472C63.9659 64.2131 63.2784 63.946 62.3977 63.946C61.7955 63.946 61.2557 64.0739 60.7784 64.3295C60.3068 64.5852 59.9347 64.9602 59.6619 65.4545C59.3949 65.9432 59.2614 66.5341 59.2614 67.2273ZM76.7008 75.2642C75.4735 75.2642 74.4025 74.983 73.4877 74.4205C72.5729 73.858 71.8627 73.071 71.357 72.0597C70.8513 71.0483 70.5985 69.8665 70.5985 68.5142C70.5985 67.1562 70.8513 65.9687 71.357 64.9517C71.8627 63.9347 72.5729 63.1449 73.4877 62.5824C74.4025 62.0199 75.4735 61.7386 76.7008 61.7386C77.928 61.7386 78.9991 62.0199 79.9138 62.5824C80.8286 63.1449 81.5388 63.9347 82.0445 64.9517C82.5502 65.9687 82.803 67.1562 82.803 68.5142C82.803 69.8665 82.5502 71.0483 82.0445 72.0597C81.5388 73.071 80.8286 73.858 79.9138 74.4205C78.9991 74.983 77.928 75.2642 76.7008 75.2642ZM76.7093 73.125C77.5048 73.125 78.1638 72.9148 78.6866 72.4943C79.2093 72.0739 79.5957 71.5142 79.8457 70.8153C80.1013 70.1165 80.2292 69.3466 80.2292 68.5057C80.2292 67.6705 80.1013 66.9034 79.8457 66.2045C79.5957 65.5 79.2093 64.9347 78.6866 64.5085C78.1638 64.0824 77.5048 63.8693 76.7093 63.8693C75.9082 63.8693 75.2434 64.0824 74.715 64.5085C74.1923 64.9347 73.803 65.5 73.5474 66.2045C73.2974 66.9034 73.1724 67.6705 73.1724 68.5057C73.1724 69.3466 73.2974 70.1165 73.5474 70.8153C73.803 71.5142 74.1923 72.0739 74.715 72.4943C75.2434 72.9148 75.9082 73.125 76.7093 73.125ZM93.9761 69.571V61.9091H96.5329V75H94.0273V72.733H93.8909C93.5898 73.4318 93.1068 74.0142 92.442 74.4801C91.7829 74.9403 90.9619 75.1705 89.979 75.1705C89.1381 75.1705 88.3937 74.9858 87.746 74.6165C87.104 74.2415 86.5983 73.6875 86.229 72.9545C85.8653 72.2216 85.6835 71.3153 85.6835 70.2358V61.9091H88.2318V69.929C88.2318 70.821 88.479 71.5312 88.9733 72.0597C89.4676 72.5881 90.1096 72.8523 90.8994 72.8523C91.3767 72.8523 91.8511 72.733 92.3227 72.4943C92.8 72.2557 93.1949 71.8949 93.5074 71.4119C93.8256 70.929 93.9818 70.3153 93.9761 69.571ZM99.9929 75V61.9091H102.456V63.9886H102.592C102.831 63.2841 103.251 62.7301 103.854 62.3267C104.462 61.9176 105.149 61.7131 105.916 61.7131C106.075 61.7131 106.263 61.7187 106.479 61.7301C106.7 61.7415 106.874 61.7557 106.999 61.7727V64.2102C106.896 64.1818 106.715 64.1506 106.453 64.1165C106.192 64.0767 105.93 64.0568 105.669 64.0568C105.067 64.0568 104.53 64.1847 104.058 64.4403C103.592 64.6903 103.223 65.0398 102.95 65.4886C102.678 65.9318 102.541 66.4375 102.541 67.0057V75H99.9929ZM119.05 65.1051L116.74 65.5142C116.643 65.2187 116.49 64.9375 116.28 64.6705C116.075 64.4034 115.797 64.1847 115.444 64.0142C115.092 63.8437 114.652 63.7585 114.123 63.7585C113.402 63.7585 112.8 63.9205 112.317 64.2443C111.834 64.5625 111.592 64.9744 111.592 65.4801C111.592 65.9176 111.754 66.2699 112.078 66.5369C112.402 66.804 112.925 67.0227 113.646 67.1932L115.726 67.6705C116.93 67.9489 117.828 68.3778 118.419 68.9574C119.01 69.5369 119.305 70.2898 119.305 71.2159C119.305 72 119.078 72.6989 118.623 73.3125C118.175 73.9205 117.547 74.3977 116.74 74.7443C115.939 75.0909 115.01 75.2642 113.953 75.2642C112.487 75.2642 111.291 74.9517 110.365 74.3267C109.439 73.696 108.871 72.8011 108.66 71.642L111.123 71.267C111.277 71.9091 111.592 72.3949 112.069 72.7244C112.547 73.0483 113.169 73.2102 113.936 73.2102C114.771 73.2102 115.439 73.0369 115.939 72.6903C116.439 72.3381 116.689 71.9091 116.689 71.4034C116.689 70.9943 116.535 70.6506 116.229 70.3722C115.927 70.0937 115.464 69.8835 114.839 69.7415L112.623 69.2557C111.402 68.9773 110.498 68.5341 109.913 67.9261C109.334 67.3182 109.044 66.5483 109.044 65.6165C109.044 64.8437 109.26 64.1676 109.692 63.5881C110.123 63.0085 110.72 62.5568 111.481 62.233C112.243 61.9034 113.115 61.7386 114.098 61.7386C115.513 61.7386 116.626 62.0455 117.439 62.6591C118.251 63.267 118.788 64.0824 119.05 65.1051Z" fill="#9B9B9B"/>
<path d="M241.652 21H184V40.684M241.652 21V90M241.652 21H300.609M241.652 90H184V74.9724M241.652 90H300.609M300.609 21V90M300.609 21H359.304M300.609 90H359.304M359.304 21H418V40.684M359.304 21V90M359.304 90H418V74.9724M184 40.684H418M184 40.684V57.8282M418 40.684V57.8282M184 74.9724H418M184 74.9724V57.8282M418 74.9724V57.8282M184 57.8282H418" stroke="#EDEDED"/>
<path d="M185 44.6667L258.776 63L345.08 28L391.48 34.6667L417 38" stroke="#1773B0"/>
</svg>
