<svg width="432" height="110" viewBox="0 0 432 110" fill="none" xmlns="http://www.w3.org/2000/svg">
<rect x="0.5" y="0.5" width="431" height="109" rx="7.5" fill="#FAFBFB" stroke="#DADBDB"/>
<path d="M15.9815 22H14.294L17.3665 13.2727H19.3182L22.3949 22H20.7074L18.3764 15.0625H18.3082L15.9815 22ZM16.0369 18.5781H20.6392V19.848H16.0369V18.5781ZM28.5205 15.4545L26.1895 22H24.485L22.154 15.4545H23.7989L25.3032 20.3168H25.3713L26.8799 15.4545H28.5205ZM32.2299 24.5909C31.6759 24.5909 31.2001 24.5156 30.8023 24.3651C30.4046 24.2173 30.085 24.0185 29.8435 23.7685C29.6021 23.5185 29.4344 23.2415 29.3407 22.9375L30.7299 22.6009C30.7924 22.7287 30.8833 22.8551 31.0026 22.9801C31.1219 23.108 31.2824 23.2131 31.4842 23.2955C31.6887 23.3807 31.9458 23.4233 32.2555 23.4233C32.693 23.4233 33.0552 23.3168 33.3421 23.1037C33.629 22.8935 33.7725 22.5469 33.7725 22.0639V20.8239H33.6958C33.6163 20.983 33.4998 21.1463 33.3464 21.3139C33.1958 21.4815 32.9955 21.6222 32.7455 21.7358C32.4984 21.8494 32.1873 21.9062 31.8123 21.9062C31.3094 21.9062 30.8535 21.7884 30.4444 21.5526C30.0381 21.3139 29.7143 20.9588 29.4728 20.4872C29.2342 20.0128 29.1148 19.419 29.1148 18.706C29.1148 17.9872 29.2342 17.3807 29.4728 16.8864C29.7143 16.3892 30.0396 16.0128 30.4486 15.7571C30.8577 15.4986 31.3137 15.3693 31.8165 15.3693C32.2001 15.3693 32.5154 15.4347 32.7626 15.5653C33.0126 15.6932 33.2114 15.848 33.3592 16.0298C33.5069 16.2088 33.6191 16.3778 33.6958 16.5369H33.781V15.4545H35.3023V22.1065C35.3023 22.6662 35.1688 23.1293 34.9018 23.4957C34.6347 23.8622 34.2697 24.1364 33.8066 24.3182C33.3435 24.5 32.818 24.5909 32.2299 24.5909ZM32.2427 20.696C32.5694 20.696 32.8478 20.6165 33.0779 20.4574C33.308 20.2983 33.4827 20.0696 33.6021 19.7713C33.7214 19.473 33.781 19.1151 33.781 18.6974C33.781 18.2855 33.7214 17.9247 33.6021 17.6151C33.4856 17.3054 33.3123 17.0653 33.0822 16.8949C32.8549 16.7216 32.5751 16.6349 32.2427 16.6349C31.8989 16.6349 31.612 16.7244 31.3819 16.9034C31.1518 17.0824 30.9785 17.3281 30.862 17.6406C30.7455 17.9503 30.6873 18.3026 30.6873 18.6974C30.6873 19.098 30.7455 19.4489 30.862 19.75C30.9813 20.0483 31.156 20.2812 31.3861 20.4489C31.6191 20.6136 31.9046 20.696 32.2427 20.696ZM37.8516 22.0938C37.5931 22.0938 37.3715 22.0028 37.1868 21.821C37.0022 21.6392 36.9112 21.4176 36.9141 21.1562C36.9112 20.9006 37.0022 20.6818 37.1868 20.5C37.3715 20.3182 37.5931 20.2273 37.8516 20.2273C38.1016 20.2273 38.3189 20.3182 38.5036 20.5C38.6911 20.6818 38.7862 20.9006 38.7891 21.1562C38.7862 21.3295 38.7408 21.4872 38.6527 21.6293C38.5675 21.7713 38.4539 21.8849 38.3118 21.9702C38.1726 22.0526 38.0192 22.0938 37.8516 22.0938ZM43.193 22V13.2727H46.4657C47.1362 13.2727 47.6987 13.3892 48.1532 13.6222C48.6106 13.8551 48.9558 14.1818 49.1887 14.6023C49.4245 15.0199 49.5424 15.5071 49.5424 16.0639C49.5424 16.6236 49.4231 17.1094 49.1845 17.5213C48.9487 17.9304 48.6007 18.2472 48.1404 18.4716C47.6802 18.6932 47.1149 18.804 46.4444 18.804H44.1134V17.4915H46.2313C46.6234 17.4915 46.9444 17.4375 47.1944 17.3295C47.4444 17.2187 47.6291 17.0582 47.7484 16.848C47.8705 16.6349 47.9316 16.3736 47.9316 16.0639C47.9316 15.7543 47.8705 15.4901 47.7484 15.2713C47.6262 15.0497 47.4401 14.8821 47.1901 14.7685C46.9401 14.652 46.6177 14.5938 46.2228 14.5938H44.7739V22H43.193ZM47.7015 18.0455L49.862 22H48.0978L45.9757 18.0455H47.7015ZM53.7515 22.1278C53.0952 22.1278 52.5285 21.9915 52.0512 21.7188C51.5768 21.4432 51.2117 21.054 50.956 20.5511C50.7003 20.0455 50.5725 19.4503 50.5725 18.7656C50.5725 18.0923 50.7003 17.5014 50.956 16.9929C51.2145 16.4815 51.5753 16.0838 52.0384 15.7997C52.5015 15.5128 53.0455 15.3693 53.6705 15.3693C54.0739 15.3693 54.4546 15.4347 54.8125 15.5653C55.1733 15.6932 55.4915 15.892 55.7671 16.1619C56.0455 16.4318 56.2643 16.7756 56.4233 17.1932C56.5824 17.608 56.662 18.1023 56.662 18.6761V19.1491H51.2969V18.1094H55.1833C55.1804 17.8139 55.1165 17.5511 54.9915 17.321C54.8665 17.0881 54.6918 16.9048 54.4674 16.7713C54.2458 16.6378 53.9873 16.571 53.6918 16.571C53.3765 16.571 53.0995 16.6477 52.8608 16.8011C52.6222 16.9517 52.4361 17.1506 52.3026 17.3977C52.1719 17.642 52.1052 17.9105 52.1023 18.2031V19.1108C52.1023 19.4915 52.1719 19.8182 52.3111 20.0909C52.4503 20.3608 52.6449 20.5682 52.8949 20.7131C53.1449 20.8551 53.4375 20.9261 53.7728 20.9261C53.9972 20.9261 54.2003 20.8949 54.3821 20.8324C54.564 20.767 54.7216 20.6719 54.8552 20.5469C54.9887 20.4219 55.0895 20.267 55.1577 20.0824L56.5981 20.2443C56.5071 20.625 56.3339 20.9574 56.0782 21.2415C55.8253 21.5227 55.5015 21.7415 55.1066 21.8977C54.7117 22.0511 54.26 22.1278 53.7515 22.1278ZM61.2535 15.4545V16.6477H57.4907V15.4545H61.2535ZM58.4197 13.8864H59.9623V20.0312C59.9623 20.2386 59.9935 20.3977 60.056 20.5085C60.1214 20.6165 60.2066 20.6903 60.3117 20.7301C60.4168 20.7699 60.5333 20.7898 60.6612 20.7898C60.7577 20.7898 60.8458 20.7827 60.9254 20.7685C61.0077 20.7543 61.0702 20.7415 61.1129 20.7301L61.3728 21.9361C61.2904 21.9645 61.1725 21.9957 61.0191 22.0298C60.8685 22.0639 60.6839 22.0838 60.4651 22.0895C60.0788 22.1009 59.7308 22.0426 59.4211 21.9148C59.1114 21.7841 58.8657 21.5824 58.6839 21.3097C58.5049 21.0369 58.4168 20.696 58.4197 20.2869V13.8864ZM66.7335 19.2472V15.4545H68.2761V22H66.7804V20.8366H66.7122C66.5645 21.2031 66.3216 21.5028 65.9835 21.7358C65.6483 21.9687 65.2349 22.0852 64.7434 22.0852C64.3145 22.0852 63.9352 21.9901 63.6056 21.7997C63.2789 21.6065 63.0233 21.3267 62.8386 20.9602C62.6539 20.5909 62.5616 20.1449 62.5616 19.6222V15.4545H64.1042V19.3835C64.1042 19.7983 64.2179 20.1278 64.4451 20.3722C64.6724 20.6165 64.9707 20.7386 65.34 20.7386C65.5673 20.7386 65.7875 20.6832 66.0005 20.5724C66.2136 20.4616 66.3883 20.2969 66.5247 20.0781C66.6639 19.8565 66.7335 19.5795 66.7335 19.2472ZM69.8804 22V15.4545H71.3761V16.5455H71.4443C71.5636 16.1676 71.7682 15.8764 72.058 15.6719C72.3506 15.4645 72.6844 15.3608 73.0594 15.3608C73.1446 15.3608 73.2398 15.3651 73.3449 15.3736C73.4528 15.3793 73.5423 15.3892 73.6133 15.4034V16.8224C73.548 16.7997 73.4443 16.7798 73.3023 16.7628C73.1631 16.7429 73.0281 16.733 72.8974 16.733C72.6162 16.733 72.3633 16.794 72.1389 16.9162C71.9173 17.0355 71.7426 17.2017 71.6148 17.4148C71.4869 17.6278 71.423 17.8736 71.423 18.152V22H69.8804ZM76.1988 18.1648V22H74.6562V15.4545H76.1306V16.5668H76.2073C76.3579 16.2003 76.598 15.9091 76.9275 15.6932C77.2599 15.4773 77.6704 15.3693 78.159 15.3693C78.6108 15.3693 79.0042 15.4659 79.3394 15.6591C79.6775 15.8523 79.9389 16.1321 80.1235 16.4986C80.311 16.8651 80.4034 17.3097 80.4005 17.8324V22H78.8579V18.071C78.8579 17.6335 78.7443 17.2912 78.517 17.044C78.2926 16.7969 77.9815 16.6733 77.5838 16.6733C77.3139 16.6733 77.0738 16.733 76.8636 16.8523C76.6562 16.9687 76.4929 17.1378 76.3735 17.3594C76.2571 17.581 76.1988 17.8494 76.1988 18.1648ZM87.16 17.1847L85.7538 17.3381C85.714 17.196 85.6444 17.0625 85.5449 16.9375C85.4484 16.8125 85.3177 16.7116 85.1529 16.6349C84.9881 16.5582 84.7864 16.5199 84.5478 16.5199C84.2268 16.5199 83.9569 16.5895 83.7381 16.7287C83.5222 16.8679 83.4157 17.0483 83.4185 17.2699C83.4157 17.4602 83.4853 17.6151 83.6273 17.7344C83.7722 17.8537 84.0109 17.9517 84.3432 18.0284L85.4597 18.267C86.079 18.4006 86.5393 18.6122 86.8404 18.902C87.1444 19.1918 87.2978 19.571 87.3006 20.0398C87.2978 20.4517 87.177 20.8153 86.9384 21.1307C86.7026 21.4432 86.3745 21.6875 85.954 21.8636C85.5336 22.0398 85.0506 22.1278 84.5052 22.1278C83.704 22.1278 83.0591 21.9602 82.5705 21.625C82.0819 21.2869 81.7907 20.8168 81.6969 20.2145L83.2012 20.0696C83.2694 20.3651 83.4143 20.5881 83.6359 20.7386C83.8574 20.8892 84.1458 20.9645 84.5009 20.9645C84.8674 20.9645 85.1614 20.8892 85.383 20.7386C85.6074 20.5881 85.7197 20.402 85.7197 20.1804C85.7197 19.9929 85.6472 19.8381 85.5023 19.7159C85.3603 19.5937 85.1387 19.5 84.8376 19.4347L83.7211 19.2003C83.0932 19.0696 82.6288 18.8494 82.3276 18.5398C82.0265 18.2273 81.8773 17.8324 81.8802 17.3551C81.8773 16.9517 81.9867 16.6023 82.2083 16.3068C82.4327 16.0085 82.7438 15.7784 83.1415 15.6165C83.5421 15.4517 84.0038 15.3693 84.5265 15.3693C85.2935 15.3693 85.8972 15.5327 86.3376 15.8594C86.7807 16.1861 87.0549 16.6278 87.16 17.1847ZM91.6534 22V13.2727H94.9261C95.5966 13.2727 96.1591 13.3892 96.6136 13.6222C97.071 13.8551 97.4162 14.1818 97.6491 14.6023C97.8849 15.0199 98.0028 15.5071 98.0028 16.0639C98.0028 16.6236 97.8835 17.1094 97.6449 17.5213C97.4091 17.9304 97.0611 18.2472 96.6008 18.4716C96.1406 18.6932 95.5753 18.804 94.9048 18.804H92.5738V17.4915H94.6917C95.0838 17.4915 95.4048 17.4375 95.6548 17.3295C95.9048 17.2187 96.0895 17.0582 96.2088 16.848C96.3309 16.6349 96.392 16.3736 96.392 16.0639C96.392 15.7543 96.3309 15.4901 96.2088 15.2713C96.0866 15.0497 95.9005 14.8821 95.6505 14.7685C95.4005 14.652 95.0781 14.5938 94.6832 14.5938H93.2344V22H91.6534ZM96.1619 18.0455L98.3224 22H96.5582L94.4361 18.0455H96.1619ZM101.291 22.1321C100.877 22.1321 100.503 22.0582 100.171 21.9105C99.8411 21.7599 99.5798 21.5384 99.3866 21.2457C99.1962 20.9531 99.1011 20.5923 99.1011 20.1634C99.1011 19.794 99.1693 19.4886 99.3056 19.2472C99.442 19.0057 99.6281 18.8125 99.8639 18.6676C100.1 18.5227 100.365 18.4134 100.661 18.3395C100.959 18.2628 101.267 18.2074 101.585 18.1733C101.969 18.1335 102.28 18.098 102.519 18.0668C102.757 18.0327 102.931 17.9815 103.039 17.9134C103.149 17.8423 103.205 17.733 103.205 17.5852V17.5597C103.205 17.2386 103.11 16.9901 102.919 16.8139C102.729 16.6378 102.455 16.5497 102.097 16.5497C101.719 16.5497 101.419 16.6321 101.198 16.7969C100.979 16.9616 100.831 17.1562 100.754 17.3807L99.3141 17.1761C99.4278 16.7784 99.6153 16.446 99.8766 16.179C100.138 15.9091 100.458 15.7074 100.835 15.5739C101.213 15.4375 101.631 15.3693 102.088 15.3693C102.404 15.3693 102.718 15.4062 103.03 15.4801C103.343 15.554 103.628 15.6761 103.887 15.8466C104.145 16.0142 104.352 16.2429 104.509 16.5327C104.668 16.8224 104.747 17.1847 104.747 17.6193V22H103.264V21.1009H103.213C103.12 21.2827 102.987 21.4531 102.817 21.6122C102.649 21.7685 102.438 21.8949 102.182 21.9915C101.929 22.0852 101.632 22.1321 101.291 22.1321ZM101.692 20.9986C102.002 20.9986 102.27 20.9375 102.497 20.8153C102.725 20.6903 102.899 20.5256 103.022 20.321C103.147 20.1165 103.209 19.8935 103.209 19.652V18.8807C103.161 18.9205 103.078 18.9574 102.962 18.9915C102.848 19.0256 102.72 19.0554 102.578 19.081C102.436 19.1065 102.296 19.1293 102.156 19.1491C102.017 19.169 101.897 19.1861 101.794 19.2003C101.564 19.2315 101.358 19.2827 101.176 19.3537C100.995 19.4247 100.851 19.5241 100.746 19.652C100.641 19.777 100.588 19.9389 100.588 20.1378C100.588 20.4219 100.692 20.6364 100.899 20.7812C101.107 20.9261 101.371 20.9986 101.692 20.9986ZM109.585 15.4545V16.6477H105.822V15.4545H109.585ZM106.751 13.8864H108.294V20.0312C108.294 20.2386 108.325 20.3977 108.388 20.5085C108.453 20.6165 108.538 20.6903 108.643 20.7301C108.748 20.7699 108.865 20.7898 108.993 20.7898C109.089 20.7898 109.177 20.7827 109.257 20.7685C109.339 20.7543 109.402 20.7415 109.444 20.7301L109.704 21.9361C109.622 21.9645 109.504 21.9957 109.351 22.0298C109.2 22.0639 109.015 22.0838 108.797 22.0895C108.41 22.1009 108.062 22.0426 107.753 21.9148C107.443 21.7841 107.197 21.5824 107.015 21.3097C106.836 21.0369 106.748 20.696 106.751 20.2869V13.8864ZM113.721 22.1278C113.064 22.1278 112.498 21.9915 112.02 21.7188C111.546 21.4432 111.181 21.054 110.925 20.5511C110.669 20.0455 110.542 19.4503 110.542 18.7656C110.542 18.0923 110.669 17.5014 110.925 16.9929C111.184 16.4815 111.544 16.0838 112.007 15.7997C112.471 15.5128 113.015 15.3693 113.64 15.3693C114.043 15.3693 114.424 15.4347 114.782 15.5653C115.142 15.6932 115.461 15.892 115.736 16.1619C116.015 16.4318 116.233 16.7756 116.392 17.1932C116.551 17.608 116.631 18.1023 116.631 18.6761V19.1491H111.266V18.1094H115.152C115.15 17.8139 115.086 17.5511 114.961 17.321C114.836 17.0881 114.661 16.9048 114.436 16.7713C114.215 16.6378 113.956 16.571 113.661 16.571C113.346 16.571 113.069 16.6477 112.83 16.8011C112.591 16.9517 112.405 17.1506 112.272 17.3977C112.141 17.642 112.074 17.9105 112.071 18.2031V19.1108C112.071 19.4915 112.141 19.8182 112.28 20.0909C112.419 20.3608 112.614 20.5682 112.864 20.7131C113.114 20.8551 113.407 20.9261 113.742 20.9261C113.966 20.9261 114.169 20.8949 114.351 20.8324C114.533 20.767 114.691 20.6719 114.824 20.5469C114.958 20.4219 115.059 20.267 115.127 20.0824L116.567 20.2443C116.476 20.625 116.303 20.9574 116.047 21.2415C115.794 21.5227 115.471 21.7415 115.076 21.8977C114.681 22.0511 114.229 22.1278 113.721 22.1278Z" fill="black"/>
<path d="M19.767 32.1818V38H18.8864V33.0625H18.8523L17.4602 33.9716V33.1307L18.9119 32.1818H19.767ZM23.3785 38.0966C22.9296 38.0947 22.5461 37.9763 22.2279 37.7415C21.9097 37.5066 21.6664 37.1648 21.4978 36.7159C21.3292 36.267 21.245 35.7263 21.245 35.0938C21.245 34.4631 21.3292 33.9242 21.4978 33.4773C21.6683 33.0303 21.9126 32.6894 22.2308 32.4545C22.5508 32.2197 22.9334 32.1023 23.3785 32.1023C23.8236 32.1023 24.2052 32.2206 24.5234 32.4574C24.8415 32.6922 25.0849 33.0331 25.2535 33.4801C25.4239 33.9252 25.5092 34.4631 25.5092 35.0938C25.5092 35.7282 25.4249 36.2699 25.2563 36.7188C25.0878 37.1657 24.8444 37.5076 24.5262 37.7443C24.208 37.9792 23.8254 38.0966 23.3785 38.0966ZM23.3785 37.3381C23.7724 37.3381 24.0802 37.1458 24.3018 36.7614C24.5253 36.3769 24.637 35.821 24.637 35.0938C24.637 34.6108 24.5859 34.2027 24.4836 33.8693C24.3832 33.5341 24.2383 33.2803 24.0489 33.108C23.8614 32.9337 23.6379 32.8466 23.3785 32.8466C22.9864 32.8466 22.6787 33.0398 22.4552 33.4261C22.2317 33.8125 22.119 34.3684 22.1171 35.0938C22.1171 35.5786 22.1673 35.9886 22.2677 36.3239C22.37 36.6572 22.5148 36.91 22.7023 37.0824C22.8898 37.2528 23.1152 37.3381 23.3785 37.3381ZM28.5545 38.0966C28.1057 38.0947 27.7222 37.9763 27.404 37.7415C27.0858 37.5066 26.8424 37.1648 26.6739 36.7159C26.5053 36.267 26.421 35.7263 26.421 35.0938C26.421 34.4631 26.5053 33.9242 26.6739 33.4773C26.8443 33.0303 27.0886 32.6894 27.4068 32.4545C27.7269 32.2197 28.1095 32.1023 28.5545 32.1023C28.9996 32.1023 29.3812 32.2206 29.6994 32.4574C30.0176 32.6922 30.261 33.0331 30.4295 33.4801C30.6 33.9252 30.6852 34.4631 30.6852 35.0938C30.6852 35.7282 30.6009 36.2699 30.4324 36.7188C30.2638 37.1657 30.0204 37.5076 29.7023 37.7443C29.3841 37.9792 29.0015 38.0966 28.5545 38.0966ZM28.5545 37.3381C28.9485 37.3381 29.2562 37.1458 29.4778 36.7614C29.7013 36.3769 29.8131 35.821 29.8131 35.0938C29.8131 34.6108 29.7619 34.2027 29.6597 33.8693C29.5593 33.5341 29.4144 33.2803 29.225 33.108C29.0375 32.9337 28.814 32.8466 28.5545 32.8466C28.1625 32.8466 27.8547 33.0398 27.6312 33.4261C27.4078 33.8125 27.2951 34.3684 27.2932 35.0938C27.2932 35.5786 27.3434 35.9886 27.4437 36.3239C27.546 36.6572 27.6909 36.91 27.8784 37.0824C28.0659 37.2528 28.2913 37.3381 28.5545 37.3381ZM34.742 36.9091V36.6023C34.742 36.3826 34.7874 36.1818 34.8783 36C34.9711 35.8163 35.1056 35.6695 35.2817 35.5597C35.4598 35.4479 35.6747 35.392 35.9266 35.392C36.1842 35.392 36.4001 35.447 36.5744 35.5568C36.7486 35.6667 36.8802 35.8134 36.9692 35.9972C37.0601 36.1809 37.1056 36.3826 37.1056 36.6023V36.9091C37.1056 37.1288 37.0601 37.3305 36.9692 37.5142C36.8783 37.696 36.7448 37.8428 36.5687 37.9545C36.3944 38.0644 36.1804 38.1193 35.9266 38.1193C35.6709 38.1193 35.455 38.0644 35.2789 37.9545C35.1028 37.8428 34.9692 37.696 34.8783 37.5142C34.7874 37.3305 34.742 37.1288 34.742 36.9091ZM35.4039 36.6023V36.9091C35.4039 37.072 35.4427 37.2197 35.5204 37.3523C35.598 37.4848 35.7334 37.5511 35.9266 37.5511C36.1179 37.5511 36.2514 37.4848 36.3272 37.3523C36.403 37.2197 36.4408 37.072 36.4408 36.9091V36.6023C36.4408 36.4394 36.4039 36.2917 36.33 36.1591C36.2581 36.0265 36.1236 35.9602 35.9266 35.9602C35.7372 35.9602 35.6028 36.0265 35.5232 36.1591C35.4437 36.2917 35.4039 36.4394 35.4039 36.6023ZM31.8158 33.5795V33.2727C31.8158 33.053 31.8613 32.8513 31.9522 32.6676C32.045 32.4839 32.1795 32.3371 32.3556 32.2273C32.5336 32.1174 32.7486 32.0625 33.0005 32.0625C33.2581 32.0625 33.474 32.1174 33.6482 32.2273C33.8225 32.3371 33.9541 32.4839 34.0431 32.6676C34.1321 32.8513 34.1766 33.053 34.1766 33.2727V33.5795C34.1766 33.7992 34.1312 34.0009 34.0403 34.1847C33.9512 34.3665 33.8187 34.5133 33.6425 34.625C33.4683 34.7348 33.2543 34.7898 33.0005 34.7898C32.7429 34.7898 32.5261 34.7348 32.3499 34.625C32.1757 34.5133 32.0431 34.3665 31.9522 34.1847C31.8613 34.0009 31.8158 33.7992 31.8158 33.5795ZM32.4806 33.2727V33.5795C32.4806 33.7424 32.5185 33.8902 32.5942 34.0227C32.6719 34.1553 32.8073 34.2216 33.0005 34.2216C33.1899 34.2216 33.3225 34.1553 33.3982 34.0227C33.4759 33.8902 33.5147 33.7424 33.5147 33.5795V33.2727C33.5147 33.1098 33.4778 32.9621 33.4039 32.8295C33.33 32.697 33.1956 32.6307 33.0005 32.6307C32.8111 32.6307 32.6766 32.697 32.5971 32.8295C32.5194 32.9621 32.4806 33.1098 32.4806 33.2727ZM32.0857 38L36.0857 32.1818H36.7647L32.7647 38H32.0857Z" fill="#9B9B9B"/>
<path d="M24.4801 62.0795C24.1241 62.0795 23.804 62.0114 23.5199 61.875C23.2377 61.7367 23.0123 61.5473 22.8438 61.3068C22.6752 61.0663 22.5852 60.7917 22.5739 60.483H23.4261C23.447 60.733 23.5578 60.9384 23.7585 61.0994C23.9593 61.2604 24.1998 61.3409 24.4801 61.3409C24.7036 61.3409 24.9015 61.2898 25.0739 61.1875C25.2481 61.0833 25.3845 60.9403 25.483 60.7585C25.5833 60.5767 25.6335 60.3693 25.6335 60.1364C25.6335 59.8996 25.5824 59.6884 25.4801 59.5028C25.3778 59.3172 25.2367 59.1714 25.0568 59.0653C24.8788 58.9593 24.6742 58.9053 24.4432 58.9034C24.267 58.9034 24.09 58.9337 23.9119 58.9943C23.7339 59.0549 23.59 59.1345 23.4801 59.233L22.6761 59.1136L23.0028 56.1818H26.2017V56.9347H23.733L23.5483 58.5625H23.5824C23.696 58.4527 23.8466 58.3608 24.0341 58.2869C24.2235 58.2131 24.4261 58.1761 24.642 58.1761C24.9962 58.1761 25.3116 58.2604 25.5881 58.429C25.8665 58.5975 26.0852 58.8277 26.2443 59.1193C26.4053 59.4091 26.4848 59.7424 26.483 60.1193C26.4848 60.4962 26.3996 60.8324 26.2273 61.1278C26.0568 61.4233 25.8201 61.6562 25.517 61.8267C25.2159 61.9953 24.8703 62.0795 24.4801 62.0795ZM29.5582 62.0966C29.1093 62.0947 28.7258 61.9763 28.4076 61.7415C28.0894 61.5066 27.846 61.1648 27.6775 60.7159C27.5089 60.267 27.4246 59.7263 27.4246 59.0938C27.4246 58.4631 27.5089 57.9242 27.6775 57.4773C27.8479 57.0303 28.0923 56.6894 28.4104 56.4545C28.7305 56.2197 29.1131 56.1023 29.5582 56.1023C30.0032 56.1023 30.3849 56.2206 30.7031 56.4574C31.0212 56.6922 31.2646 57.0331 31.4332 57.4801C31.6036 57.9252 31.6888 58.4631 31.6888 59.0938C31.6888 59.7282 31.6046 60.2699 31.436 60.7188C31.2674 61.1657 31.0241 61.5076 30.7059 61.7443C30.3877 61.9792 30.0051 62.0966 29.5582 62.0966ZM29.5582 61.3381C29.9521 61.3381 30.2599 61.1458 30.4815 60.7614C30.7049 60.3769 30.8167 59.821 30.8167 59.0938C30.8167 58.6108 30.7656 58.2027 30.6633 57.8693C30.5629 57.5341 30.418 57.2803 30.2286 57.108C30.0411 56.9337 29.8176 56.8466 29.5582 56.8466C29.1661 56.8466 28.8584 57.0398 28.6349 57.4261C28.4114 57.8125 28.2987 58.3684 28.2968 59.0938C28.2968 59.5786 28.347 59.9886 28.4474 60.3239C28.5496 60.6572 28.6945 60.91 28.882 61.0824C29.0695 61.2528 29.2949 61.3381 29.5582 61.3381ZM35.7456 60.9091V60.6023C35.7456 60.3826 35.791 60.1818 35.882 60C35.9748 59.8163 36.1092 59.6695 36.2854 59.5597C36.4634 59.4479 36.6784 59.392 36.9303 59.392C37.1878 59.392 37.4037 59.447 37.578 59.5568C37.7522 59.6667 37.8838 59.8134 37.9729 59.9972C38.0638 60.1809 38.1092 60.3826 38.1092 60.6023V60.9091C38.1092 61.1288 38.0638 61.3305 37.9729 61.5142C37.882 61.696 37.7484 61.8428 37.5723 61.9545C37.3981 62.0644 37.184 62.1193 36.9303 62.1193C36.6746 62.1193 36.4587 62.0644 36.2825 61.9545C36.1064 61.8428 35.9729 61.696 35.882 61.5142C35.791 61.3305 35.7456 61.1288 35.7456 60.9091ZM36.4075 60.6023V60.9091C36.4075 61.072 36.4463 61.2197 36.524 61.3523C36.6017 61.4848 36.7371 61.5511 36.9303 61.5511C37.1215 61.5511 37.2551 61.4848 37.3308 61.3523C37.4066 61.2197 37.4445 61.072 37.4445 60.9091V60.6023C37.4445 60.4394 37.4075 60.2917 37.3337 60.1591C37.2617 60.0265 37.1272 59.9602 36.9303 59.9602C36.7409 59.9602 36.6064 60.0265 36.5268 60.1591C36.4473 60.2917 36.4075 60.4394 36.4075 60.6023ZM32.8195 57.5795V57.2727C32.8195 57.053 32.8649 56.8513 32.9558 56.6676C33.0486 56.4839 33.1831 56.3371 33.3592 56.2273C33.5373 56.1174 33.7522 56.0625 34.0041 56.0625C34.2617 56.0625 34.4776 56.1174 34.6518 56.2273C34.8261 56.3371 34.9577 56.4839 35.0467 56.6676C35.1357 56.8513 35.1803 57.053 35.1803 57.2727V57.5795C35.1803 57.7992 35.1348 58.0009 35.0439 58.1847C34.9549 58.3665 34.8223 58.5133 34.6462 58.625C34.4719 58.7348 34.2579 58.7898 34.0041 58.7898C33.7465 58.7898 33.5297 58.7348 33.3535 58.625C33.1793 58.5133 33.0467 58.3665 32.9558 58.1847C32.8649 58.0009 32.8195 57.7992 32.8195 57.5795ZM33.4842 57.2727V57.5795C33.4842 57.7424 33.5221 57.8902 33.5979 58.0227C33.6755 58.1553 33.8109 58.2216 34.0041 58.2216C34.1935 58.2216 34.3261 58.1553 34.4018 58.0227C34.4795 57.8902 34.5183 57.7424 34.5183 57.5795V57.2727C34.5183 57.1098 34.4814 56.9621 34.4075 56.8295C34.3337 56.697 34.1992 56.6307 34.0041 56.6307C33.8147 56.6307 33.6803 56.697 33.6007 56.8295C33.5231 56.9621 33.4842 57.1098 33.4842 57.2727ZM33.0893 62L37.0893 56.1818H37.7683L33.7683 62H33.0893Z" fill="#9B9B9B"/>
<path d="M30.5852 86.0966C30.1364 86.0947 29.7528 85.9763 29.4347 85.7415C29.1165 85.5066 28.8731 85.1648 28.7045 84.7159C28.536 84.267 28.4517 83.7263 28.4517 83.0938C28.4517 82.4631 28.536 81.9242 28.7045 81.4773C28.875 81.0303 29.1193 80.6894 29.4375 80.4545C29.7576 80.2197 30.1402 80.1023 30.5852 80.1023C31.0303 80.1023 31.4119 80.2206 31.7301 80.4574C32.0483 80.6922 32.2917 81.0331 32.4602 81.4801C32.6307 81.9252 32.7159 82.4631 32.7159 83.0938C32.7159 83.7282 32.6316 84.2699 32.4631 84.7188C32.2945 85.1657 32.0511 85.5076 31.733 85.7443C31.4148 85.9792 31.0322 86.0966 30.5852 86.0966ZM30.5852 85.3381C30.9792 85.3381 31.2869 85.1458 31.5085 84.7614C31.732 84.3769 31.8438 83.821 31.8438 83.0938C31.8438 82.6108 31.7926 82.2027 31.6903 81.8693C31.59 81.5341 31.4451 81.2803 31.2557 81.108C31.0682 80.9337 30.8447 80.8466 30.5852 80.8466C30.1932 80.8466 29.8854 81.0398 29.6619 81.4261C29.4384 81.8125 29.3258 82.3684 29.3239 83.0938C29.3239 83.5786 29.3741 83.9886 29.4744 84.3239C29.5767 84.6572 29.7216 84.91 29.9091 85.0824C30.0966 85.2528 30.322 85.3381 30.5852 85.3381ZM36.7727 84.9091V84.6023C36.7727 84.3826 36.8181 84.1818 36.909 84C37.0018 83.8163 37.1363 83.6695 37.3124 83.5597C37.4905 83.4479 37.7054 83.392 37.9573 83.392C38.2149 83.392 38.4308 83.447 38.605 83.5568C38.7793 83.6667 38.9109 83.8134 38.9999 83.9972C39.0908 84.1809 39.1363 84.3826 39.1363 84.6023V84.9091C39.1363 85.1288 39.0908 85.3305 38.9999 85.5142C38.909 85.696 38.7755 85.8428 38.5994 85.9545C38.4251 86.0644 38.2111 86.1193 37.9573 86.1193C37.7016 86.1193 37.4857 86.0644 37.3096 85.9545C37.1334 85.8428 36.9999 85.696 36.909 85.5142C36.8181 85.3305 36.7727 85.1288 36.7727 84.9091ZM37.4346 84.6023V84.9091C37.4346 85.072 37.4734 85.2197 37.5511 85.3523C37.6287 85.4848 37.7641 85.5511 37.9573 85.5511C38.1486 85.5511 38.2821 85.4848 38.3579 85.3523C38.4336 85.2197 38.4715 85.072 38.4715 84.9091V84.6023C38.4715 84.4394 38.4346 84.2917 38.3607 84.1591C38.2888 84.0265 38.1543 83.9602 37.9573 83.9602C37.7679 83.9602 37.6334 84.0265 37.5539 84.1591C37.4744 84.2917 37.4346 84.4394 37.4346 84.6023ZM33.8465 81.5795V81.2727C33.8465 81.053 33.892 80.8513 33.9829 80.6676C34.0757 80.4839 34.2102 80.3371 34.3863 80.2273C34.5643 80.1174 34.7793 80.0625 35.0312 80.0625C35.2888 80.0625 35.5047 80.1174 35.6789 80.2273C35.8531 80.3371 35.9848 80.4839 36.0738 80.6676C36.1628 80.8513 36.2073 81.053 36.2073 81.2727V81.5795C36.2073 81.7992 36.1619 82.0009 36.0709 82.1847C35.9819 82.3665 35.8494 82.5133 35.6732 82.625C35.499 82.7348 35.285 82.7898 35.0312 82.7898C34.7736 82.7898 34.5567 82.7348 34.3806 82.625C34.2064 82.5133 34.0738 82.3665 33.9829 82.1847C33.892 82.0009 33.8465 81.7992 33.8465 81.5795ZM34.5113 81.2727V81.5795C34.5113 81.7424 34.5492 81.8902 34.6249 82.0227C34.7026 82.1553 34.838 82.2216 35.0312 82.2216C35.2206 82.2216 35.3531 82.1553 35.4289 82.0227C35.5066 81.8902 35.5454 81.7424 35.5454 81.5795V81.2727C35.5454 81.1098 35.5084 80.9621 35.4346 80.8295C35.3607 80.697 35.2263 80.6307 35.0312 80.6307C34.8418 80.6307 34.7073 80.697 34.6278 80.8295C34.5501 80.9621 34.5113 81.1098 34.5113 81.2727ZM34.1164 86L38.1164 80.1818H38.7954L34.7954 86H34.1164Z" fill="#9B9B9B"/>
<path d="M135.391 31H43V48.6871M135.391 31V93M135.391 31H229.873M135.391 93H43V79.4969M135.391 93H229.873M229.873 31V93M229.873 31H323.936M229.873 93H323.936M323.936 31H418V48.6871M323.936 31V93M323.936 93H418V79.4969M43 48.6871H418M43 48.6871V64.092M418 48.6871V64.092M43 79.4969H418M43 79.4969V64.092M418 79.4969V64.092M43 64.092H418" stroke="#EDEDED"/>
<path d="M44 76.5L97.6434 57L149.282 69.5L204.93 76.5L244.536 82L277.625 72L320.239 76.5H381.402L418 82" stroke="#1773B0"/>
<path d="M124.901 95.1818H125.776V99.3068C125.776 99.6799 125.702 99.9991 125.554 100.264C125.408 100.529 125.203 100.732 124.938 100.872C124.672 101.01 124.362 101.08 124.006 101.08C123.678 101.08 123.384 101.02 123.122 100.901C122.863 100.781 122.657 100.608 122.506 100.381C122.356 100.152 122.281 99.8731 122.281 99.5455H123.153C123.153 99.7064 123.19 99.8456 123.264 99.9631C123.34 100.08 123.443 100.172 123.574 100.239C123.706 100.303 123.858 100.335 124.028 100.335C124.214 100.335 124.371 100.296 124.5 100.219C124.631 100.139 124.73 100.023 124.798 99.8693C124.866 99.7159 124.901 99.5284 124.901 99.3068V95.1818ZM128.267 101.097C127.99 101.097 127.74 101.045 127.517 100.943C127.293 100.839 127.116 100.688 126.986 100.491C126.857 100.295 126.793 100.053 126.793 99.767C126.793 99.5208 126.84 99.3182 126.935 99.1591C127.029 99 127.157 98.8741 127.318 98.7812C127.479 98.6884 127.659 98.6184 127.858 98.571C128.057 98.5237 128.259 98.4877 128.466 98.4631C128.727 98.4328 128.939 98.4081 129.102 98.3892C129.265 98.3684 129.383 98.3352 129.457 98.2898C129.531 98.2443 129.568 98.1705 129.568 98.0682V98.0483C129.568 97.8002 129.498 97.608 129.358 97.4716C129.22 97.3352 129.013 97.267 128.739 97.267C128.453 97.267 128.227 97.3305 128.062 97.4574C127.9 97.5824 127.787 97.7216 127.724 97.875L126.926 97.6932C127.021 97.428 127.159 97.214 127.341 97.0511C127.525 96.8864 127.736 96.767 127.974 96.6932C128.213 96.6174 128.464 96.5795 128.727 96.5795C128.901 96.5795 129.086 96.6004 129.281 96.642C129.478 96.6818 129.662 96.7557 129.832 96.8636C130.005 96.9716 130.146 97.1259 130.256 97.3267C130.365 97.5256 130.42 97.7841 130.42 98.1023V101H129.591V100.403H129.557C129.502 100.513 129.419 100.621 129.31 100.727C129.2 100.833 129.059 100.921 128.886 100.991C128.714 101.062 128.508 101.097 128.267 101.097ZM128.452 100.415C128.686 100.415 128.887 100.368 129.054 100.276C129.222 100.183 129.35 100.062 129.437 99.9119C129.526 99.7604 129.571 99.5985 129.571 99.4261V98.8636C129.541 98.8939 129.482 98.9223 129.395 98.9489C129.31 98.9735 129.212 98.9953 129.102 99.0142C128.992 99.0312 128.885 99.0473 128.781 99.0625C128.677 99.0758 128.59 99.0871 128.52 99.0966C128.355 99.1174 128.204 99.1525 128.068 99.2017C127.934 99.2509 127.826 99.322 127.744 99.4148C127.665 99.5057 127.625 99.6269 127.625 99.7784C127.625 99.9886 127.703 100.148 127.858 100.256C128.013 100.362 128.211 100.415 128.452 100.415ZM132.413 98.4091V101H131.564V96.6364H132.379V97.3466H132.433C132.533 97.1155 132.691 96.9299 132.905 96.7898C133.121 96.6496 133.392 96.5795 133.72 96.5795C134.017 96.5795 134.278 96.642 134.501 96.767C134.725 96.8902 134.898 97.0739 135.021 97.3182C135.144 97.5625 135.206 97.8646 135.206 98.2244V101H134.356V98.3267C134.356 98.0104 134.274 97.7633 134.109 97.5852C133.944 97.4053 133.718 97.3153 133.43 97.3153C133.233 97.3153 133.058 97.358 132.905 97.4432C132.753 97.5284 132.633 97.6534 132.544 97.8182C132.457 97.9811 132.413 98.178 132.413 98.4091ZM140.5 101.097C140.052 101.095 139.668 100.976 139.35 100.741C139.032 100.507 138.788 100.165 138.62 99.7159C138.451 99.267 138.367 98.7263 138.367 98.0938C138.367 97.4631 138.451 96.9242 138.62 96.4773C138.79 96.0303 139.035 95.6894 139.353 95.4545C139.673 95.2197 140.055 95.1023 140.5 95.1023C140.945 95.1023 141.327 95.2206 141.645 95.4574C141.963 95.6922 142.207 96.0331 142.375 96.4801C142.546 96.9252 142.631 97.4631 142.631 98.0938C142.631 98.7282 142.547 99.2699 142.378 99.7188C142.21 100.166 141.966 100.508 141.648 100.744C141.33 100.979 140.947 101.097 140.5 101.097ZM140.5 100.338C140.894 100.338 141.202 100.146 141.424 99.7614C141.647 99.3769 141.759 98.821 141.759 98.0938C141.759 97.6108 141.708 97.2027 141.606 96.8693C141.505 96.5341 141.36 96.2803 141.171 96.108C140.983 95.9337 140.76 95.8466 140.5 95.8466C140.108 95.8466 139.801 96.0398 139.577 96.4261C139.354 96.8125 139.241 97.3684 139.239 98.0938C139.239 98.5786 139.289 98.9886 139.39 99.3239C139.492 99.6572 139.637 99.91 139.824 100.082C140.012 100.253 140.237 100.338 140.5 100.338ZM145.858 95.1818V101H144.978V96.0625H144.944L143.551 96.9716V96.1307L145.003 95.1818H145.858Z" fill="#9B9B9B"/>
<path d="M220.901 95.1818H221.776V99.3068C221.776 99.6799 221.702 99.9991 221.554 100.264C221.408 100.529 221.203 100.732 220.938 100.872C220.672 101.01 220.362 101.08 220.006 101.08C219.678 101.08 219.384 101.02 219.122 100.901C218.863 100.781 218.657 100.608 218.506 100.381C218.356 100.152 218.281 99.8731 218.281 99.5455H219.153C219.153 99.7064 219.19 99.8456 219.264 99.9631C219.34 100.08 219.443 100.172 219.574 100.239C219.706 100.303 219.858 100.335 220.028 100.335C220.214 100.335 220.371 100.296 220.5 100.219C220.631 100.139 220.73 100.023 220.798 99.8693C220.866 99.7159 220.901 99.5284 220.901 99.3068V95.1818ZM224.267 101.097C223.99 101.097 223.74 101.045 223.517 100.943C223.293 100.839 223.116 100.688 222.986 100.491C222.857 100.295 222.793 100.053 222.793 99.767C222.793 99.5208 222.84 99.3182 222.935 99.1591C223.029 99 223.157 98.8741 223.318 98.7812C223.479 98.6884 223.659 98.6184 223.858 98.571C224.057 98.5237 224.259 98.4877 224.466 98.4631C224.727 98.4328 224.939 98.4081 225.102 98.3892C225.265 98.3684 225.383 98.3352 225.457 98.2898C225.531 98.2443 225.568 98.1705 225.568 98.0682V98.0483C225.568 97.8002 225.498 97.608 225.358 97.4716C225.22 97.3352 225.013 97.267 224.739 97.267C224.453 97.267 224.227 97.3305 224.062 97.4574C223.9 97.5824 223.787 97.7216 223.724 97.875L222.926 97.6932C223.021 97.428 223.159 97.214 223.341 97.0511C223.525 96.8864 223.736 96.767 223.974 96.6932C224.213 96.6174 224.464 96.5795 224.727 96.5795C224.901 96.5795 225.086 96.6004 225.281 96.642C225.478 96.6818 225.662 96.7557 225.832 96.8636C226.005 96.9716 226.146 97.1259 226.256 97.3267C226.365 97.5256 226.42 97.7841 226.42 98.1023V101H225.591V100.403H225.557C225.502 100.513 225.419 100.621 225.31 100.727C225.2 100.833 225.059 100.921 224.886 100.991C224.714 101.062 224.508 101.097 224.267 101.097ZM224.452 100.415C224.686 100.415 224.887 100.368 225.054 100.276C225.222 100.183 225.35 100.062 225.437 99.9119C225.526 99.7604 225.571 99.5985 225.571 99.4261V98.8636C225.541 98.8939 225.482 98.9223 225.395 98.9489C225.31 98.9735 225.212 98.9953 225.102 99.0142C224.992 99.0312 224.885 99.0473 224.781 99.0625C224.677 99.0758 224.59 99.0871 224.52 99.0966C224.355 99.1174 224.204 99.1525 224.068 99.2017C223.934 99.2509 223.826 99.322 223.744 99.4148C223.665 99.5057 223.625 99.6269 223.625 99.7784C223.625 99.9886 223.703 100.148 223.858 100.256C224.013 100.362 224.211 100.415 224.452 100.415ZM228.413 98.4091V101H227.564V96.6364H228.379V97.3466H228.433C228.533 97.1155 228.691 96.9299 228.905 96.7898C229.121 96.6496 229.392 96.5795 229.72 96.5795C230.017 96.5795 230.278 96.642 230.501 96.767C230.725 96.8902 230.898 97.0739 231.021 97.3182C231.144 97.5625 231.206 97.8646 231.206 98.2244V101H230.356V98.3267C230.356 98.0104 230.274 97.7633 230.109 97.5852C229.944 97.4053 229.718 97.3153 229.43 97.3153C229.233 97.3153 229.058 97.358 228.905 97.4432C228.753 97.5284 228.633 97.6534 228.544 97.8182C228.457 97.9811 228.413 98.178 228.413 98.4091ZM236.682 95.1818V101H235.802V96.0625H235.767L234.375 96.9716V96.1307L235.827 95.1818H236.682ZM240.299 101.08C240.04 101.076 239.784 101.028 239.532 100.938C239.282 100.847 239.055 100.695 238.85 100.483C238.646 100.271 238.482 99.9858 238.359 99.6278C238.238 99.2699 238.177 98.8229 238.177 98.2869C238.177 97.7794 238.227 97.3286 238.328 96.9347C238.43 96.5407 238.577 96.2083 238.768 95.9375C238.959 95.6648 239.19 95.4574 239.461 95.3153C239.732 95.1733 240.036 95.1023 240.373 95.1023C240.72 95.1023 241.028 95.1705 241.297 95.3068C241.565 95.4432 241.783 95.6316 241.95 95.8722C242.118 96.1127 242.225 96.3864 242.271 96.6932H241.404C241.346 96.4508 241.229 96.2528 241.055 96.0994C240.881 95.946 240.654 95.8693 240.373 95.8693C239.947 95.8693 239.615 96.0549 239.376 96.4261C239.139 96.7973 239.02 97.3134 239.018 97.9744H239.061C239.161 97.8097 239.284 97.6695 239.43 97.554C239.578 97.4366 239.743 97.3466 239.924 97.2841C240.108 97.2197 240.301 97.1875 240.504 97.1875C240.841 97.1875 241.146 97.2699 241.419 97.4347C241.693 97.5975 241.912 97.8229 242.075 98.1108C242.238 98.3987 242.319 98.7282 242.319 99.0994C242.319 99.4706 242.235 99.8068 242.066 100.108C241.9 100.409 241.665 100.648 241.362 100.824C241.059 100.998 240.705 101.083 240.299 101.08ZM240.297 100.341C240.52 100.341 240.72 100.286 240.896 100.176C241.072 100.066 241.211 99.9186 241.314 99.733C241.416 99.5473 241.467 99.34 241.467 99.1108C241.467 98.8873 241.417 98.6837 241.316 98.5C241.218 98.3163 241.082 98.1705 240.907 98.0625C240.735 97.9545 240.538 97.9006 240.316 97.9006C240.148 97.9006 239.992 97.9328 239.848 97.9972C239.706 98.0616 239.581 98.1506 239.473 98.2642C239.365 98.3778 239.279 98.5085 239.217 98.6562C239.156 98.8021 239.126 98.9564 239.126 99.1193C239.126 99.3371 239.176 99.5388 239.277 99.7244C239.379 99.91 239.518 100.06 239.694 100.173C239.872 100.285 240.073 100.341 240.297 100.341Z" fill="#9B9B9B"/>
<path d="M314.901 95.1818H315.776V99.3068C315.776 99.6799 315.702 99.9991 315.554 100.264C315.408 100.529 315.203 100.732 314.938 100.872C314.672 101.01 314.362 101.08 314.006 101.08C313.678 101.08 313.384 101.02 313.122 100.901C312.863 100.781 312.657 100.608 312.506 100.381C312.356 100.152 312.281 99.8731 312.281 99.5455H313.153C313.153 99.7064 313.19 99.8456 313.264 99.9631C313.34 100.08 313.443 100.172 313.574 100.239C313.706 100.303 313.858 100.335 314.028 100.335C314.214 100.335 314.371 100.296 314.5 100.219C314.631 100.139 314.73 100.023 314.798 99.8693C314.866 99.7159 314.901 99.5284 314.901 99.3068V95.1818ZM318.267 101.097C317.99 101.097 317.74 101.045 317.517 100.943C317.293 100.839 317.116 100.688 316.986 100.491C316.857 100.295 316.793 100.053 316.793 99.767C316.793 99.5208 316.84 99.3182 316.935 99.1591C317.029 99 317.157 98.8741 317.318 98.7812C317.479 98.6884 317.659 98.6184 317.858 98.571C318.057 98.5237 318.259 98.4877 318.466 98.4631C318.727 98.4328 318.939 98.4081 319.102 98.3892C319.265 98.3684 319.383 98.3352 319.457 98.2898C319.531 98.2443 319.568 98.1705 319.568 98.0682V98.0483C319.568 97.8002 319.498 97.608 319.358 97.4716C319.22 97.3352 319.013 97.267 318.739 97.267C318.453 97.267 318.227 97.3305 318.062 97.4574C317.9 97.5824 317.787 97.7216 317.724 97.875L316.926 97.6932C317.021 97.428 317.159 97.214 317.341 97.0511C317.525 96.8864 317.736 96.767 317.974 96.6932C318.213 96.6174 318.464 96.5795 318.727 96.5795C318.901 96.5795 319.086 96.6004 319.281 96.642C319.478 96.6818 319.662 96.7557 319.832 96.8636C320.005 96.9716 320.146 97.1259 320.256 97.3267C320.365 97.5256 320.42 97.7841 320.42 98.1023V101H319.591V100.403H319.557C319.502 100.513 319.419 100.621 319.31 100.727C319.2 100.833 319.059 100.921 318.886 100.991C318.714 101.062 318.508 101.097 318.267 101.097ZM318.452 100.415C318.686 100.415 318.887 100.368 319.054 100.276C319.222 100.183 319.35 100.062 319.437 99.9119C319.526 99.7604 319.571 99.5985 319.571 99.4261V98.8636C319.541 98.8939 319.482 98.9223 319.395 98.9489C319.31 98.9735 319.212 98.9953 319.102 99.0142C318.992 99.0312 318.885 99.0473 318.781 99.0625C318.677 99.0758 318.59 99.0871 318.52 99.0966C318.355 99.1174 318.204 99.1525 318.068 99.2017C317.934 99.2509 317.826 99.322 317.744 99.4148C317.665 99.5057 317.625 99.6269 317.625 99.7784C317.625 99.9886 317.703 100.148 317.858 100.256C318.013 100.362 318.211 100.415 318.452 100.415ZM322.413 98.4091V101H321.564V96.6364H322.379V97.3466H322.433C322.533 97.1155 322.691 96.9299 322.905 96.7898C323.121 96.6496 323.392 96.5795 323.72 96.5795C324.017 96.5795 324.278 96.642 324.501 96.767C324.725 96.8902 324.898 97.0739 325.021 97.3182C325.144 97.5625 325.206 97.8646 325.206 98.2244V101H324.356V98.3267C324.356 98.0104 324.274 97.7633 324.109 97.5852C323.944 97.4053 323.718 97.3153 323.43 97.3153C323.233 97.3153 323.058 97.358 322.905 97.4432C322.753 97.5284 322.633 97.6534 322.544 97.8182C322.457 97.9811 322.413 98.178 322.413 98.4091ZM328.475 101V100.364L330.444 98.3239C330.654 98.1023 330.827 97.9081 330.963 97.7415C331.102 97.5729 331.205 97.4129 331.273 97.2614C331.341 97.1098 331.375 96.9489 331.375 96.7784C331.375 96.5852 331.33 96.4186 331.239 96.2784C331.148 96.1364 331.024 96.0275 330.867 95.9517C330.71 95.8741 330.533 95.8352 330.336 95.8352C330.127 95.8352 329.945 95.8778 329.79 95.9631C329.635 96.0483 329.516 96.1686 329.432 96.3239C329.349 96.4792 329.307 96.661 329.307 96.8693H328.469C328.469 96.5152 328.551 96.2055 328.713 95.9403C328.876 95.6752 329.1 95.4697 329.384 95.3239C329.668 95.1761 329.991 95.1023 330.353 95.1023C330.718 95.1023 331.04 95.1752 331.319 95.321C331.599 95.465 331.818 95.6619 331.975 95.9119C332.132 96.16 332.211 96.4403 332.211 96.7528C332.211 96.9688 332.17 97.1799 332.088 97.3864C332.009 97.5928 331.87 97.8229 331.671 98.0767C331.472 98.3286 331.195 98.6345 330.841 98.9943L329.685 100.205V100.247H332.304V101H328.475ZM333.589 101L336.129 95.9773V95.9347H333.191V95.1818H337.038V95.9602L334.507 101H333.589Z" fill="#9B9B9B"/>
<path d="M401.639 101V95.1818H405.247V95.9375H402.517V97.7102H404.989V98.4631H402.517V101H401.639ZM407.831 101.088C407.401 101.088 407.031 100.996 406.72 100.812C406.411 100.627 406.173 100.366 406.004 100.031C405.838 99.6941 405.754 99.2992 405.754 98.8466C405.754 98.3996 405.838 98.0057 406.004 97.6648C406.173 97.3239 406.408 97.0578 406.709 96.8665C407.012 96.6752 407.366 96.5795 407.771 96.5795C408.017 96.5795 408.256 96.6203 408.487 96.7017C408.718 96.7831 408.926 96.911 409.109 97.0852C409.293 97.2595 409.438 97.4858 409.544 97.7642C409.65 98.0407 409.703 98.3769 409.703 98.7727V99.0739H406.234V98.4375H408.871C408.871 98.214 408.825 98.0161 408.734 97.8438C408.643 97.6695 408.516 97.5322 408.351 97.4318C408.188 97.3314 407.997 97.2812 407.777 97.2812C407.538 97.2812 407.33 97.34 407.152 97.4574C406.976 97.5729 406.839 97.7244 406.743 97.9119C406.648 98.0975 406.601 98.2992 406.601 98.517V99.0142C406.601 99.3059 406.652 99.554 406.754 99.7585C406.858 99.9631 407.003 100.119 407.189 100.227C407.374 100.333 407.591 100.386 407.839 100.386C408 100.386 408.147 100.364 408.28 100.318C408.412 100.271 408.527 100.201 408.624 100.108C408.72 100.015 408.794 99.9006 408.845 99.7642L409.649 99.9091C409.585 100.146 409.469 100.353 409.302 100.531C409.138 100.707 408.93 100.845 408.68 100.943C408.432 101.04 408.149 101.088 407.831 101.088ZM410.726 101V95.1818H411.575V97.3438H411.626C411.676 97.2528 411.747 97.1477 411.839 97.0284C411.932 96.9091 412.061 96.8049 412.226 96.7159C412.39 96.625 412.608 96.5795 412.879 96.5795C413.231 96.5795 413.546 96.6686 413.822 96.8466C414.099 97.0246 414.316 97.2812 414.473 97.6165C414.632 97.9517 414.712 98.3551 414.712 98.8267C414.712 99.2983 414.633 99.7027 414.476 100.04C414.319 100.375 414.103 100.634 413.828 100.815C413.553 100.995 413.24 101.085 412.888 101.085C412.622 101.085 412.406 101.041 412.237 100.952C412.07 100.863 411.94 100.759 411.845 100.639C411.75 100.52 411.677 100.414 411.626 100.321H411.555V101H410.726ZM411.558 98.8182C411.558 99.125 411.603 99.3939 411.692 99.625C411.781 99.8561 411.909 100.037 412.078 100.168C412.247 100.296 412.453 100.361 412.697 100.361C412.951 100.361 413.163 100.294 413.334 100.159C413.504 100.023 413.633 99.8381 413.72 99.6051C413.809 99.3722 413.854 99.1098 413.854 98.8182C413.854 98.5303 413.81 98.2718 413.723 98.0426C413.638 97.8134 413.509 97.6326 413.337 97.5C413.166 97.3674 412.953 97.3011 412.697 97.3011C412.451 97.3011 412.243 97.3646 412.072 97.4915C411.904 97.6184 411.776 97.7955 411.689 98.0227C411.602 98.25 411.558 98.5152 411.558 98.8182ZM419.821 101.097C419.372 101.095 418.988 100.976 418.67 100.741C418.352 100.507 418.109 100.165 417.94 99.7159C417.771 99.267 417.687 98.7263 417.687 98.0938C417.687 97.4631 417.771 96.9242 417.94 96.4773C418.111 96.0303 418.355 95.6894 418.673 95.4545C418.993 95.2197 419.376 95.1023 419.821 95.1023C420.266 95.1023 420.647 95.2206 420.966 95.4574C421.284 95.6922 421.527 96.0331 421.696 96.4801C421.866 96.9252 421.951 97.4631 421.951 98.0938C421.951 98.7282 421.867 99.2699 421.699 99.7188C421.53 100.166 421.287 100.508 420.968 100.744C420.65 100.979 420.268 101.097 419.821 101.097ZM419.821 100.338C420.215 100.338 420.522 100.146 420.744 99.7614C420.968 99.3769 421.079 98.821 421.079 98.0938C421.079 97.6108 421.028 97.2027 420.926 96.8693C420.825 96.5341 420.681 96.2803 420.491 96.108C420.304 95.9337 420.08 95.8466 419.821 95.8466C419.429 95.8466 419.121 96.0398 418.897 96.4261C418.674 96.8125 418.561 97.3684 418.559 98.0938C418.559 98.5786 418.61 98.9886 418.71 99.3239C418.812 99.6572 418.957 99.91 419.145 100.082C419.332 100.253 419.557 100.338 419.821 100.338ZM422.849 99.8636V99.1534L425.363 95.1818H425.923V96.2273H425.568L423.77 99.0739V99.1193H427.216V99.8636H422.849ZM425.608 101V99.6477L425.613 99.3239V95.1818H426.446V101H425.608Z" fill="#9B9B9B"/>
<path d="M34.5227 101H32.6392V95.1818H34.5824C35.1525 95.1818 35.642 95.2983 36.0511 95.5312C36.4602 95.7623 36.7737 96.0947 36.9915 96.5284C37.2112 96.9602 37.321 97.4782 37.321 98.0824C37.321 98.6884 37.2102 99.2093 36.9886 99.6449C36.7689 100.08 36.4508 100.416 36.0341 100.651C35.6174 100.884 35.1136 101 34.5227 101ZM33.517 100.233H34.4744C34.9176 100.233 35.286 100.15 35.5795 99.983C35.8731 99.8144 36.0928 99.571 36.2386 99.2528C36.3845 98.9328 36.4574 98.5426 36.4574 98.0824C36.4574 97.6259 36.3845 97.2386 36.2386 96.9205C36.0947 96.6023 35.8797 96.3608 35.5938 96.196C35.3078 96.0312 34.9527 95.9489 34.5284 95.9489H33.517V100.233ZM40.2371 101.088C39.8072 101.088 39.437 100.996 39.1263 100.812C38.8176 100.627 38.579 100.366 38.4104 100.031C38.2438 99.6941 38.1604 99.2992 38.1604 98.8466C38.1604 98.3996 38.2438 98.0057 38.4104 97.6648C38.579 97.3239 38.8138 97.0578 39.115 96.8665C39.418 96.6752 39.7722 96.5795 40.1775 96.5795C40.4237 96.5795 40.6623 96.6203 40.8934 96.7017C41.1245 96.7831 41.3318 96.911 41.5156 97.0852C41.6993 97.2595 41.8441 97.4858 41.9502 97.7642C42.0563 98.0407 42.1093 98.3769 42.1093 98.7727V99.0739H38.6406V98.4375H41.2769C41.2769 98.214 41.2315 98.0161 41.1406 97.8438C41.0496 97.6695 40.9218 97.5322 40.757 97.4318C40.5941 97.3314 40.4029 97.2812 40.1832 97.2812C39.9445 97.2812 39.7362 97.34 39.5582 97.4574C39.382 97.5729 39.2457 97.7244 39.1491 97.9119C39.0544 98.0975 39.007 98.2992 39.007 98.517V99.0142C39.007 99.3059 39.0582 99.554 39.1604 99.7585C39.2646 99.9631 39.4095 100.119 39.5951 100.227C39.7807 100.333 39.9976 100.386 40.2457 100.386C40.4066 100.386 40.5534 100.364 40.686 100.318C40.8186 100.271 40.9332 100.201 41.0298 100.108C41.1263 100.015 41.2002 99.9006 41.2513 99.7642L42.0553 99.9091C41.9909 100.146 41.8754 100.353 41.7087 100.531C41.544 100.707 41.3366 100.845 41.0866 100.943C40.8385 101.04 40.5553 101.088 40.2371 101.088ZM44.9018 101.088C44.4795 101.088 44.1159 100.992 43.8109 100.801C43.5079 100.608 43.2749 100.342 43.1121 100.003C42.9492 99.6638 42.8678 99.2756 42.8678 98.8381C42.8678 98.3949 42.9511 98.0038 43.1178 97.6648C43.2844 97.3239 43.5193 97.0578 43.8223 96.8665C44.1253 96.6752 44.4823 96.5795 44.8933 96.5795C45.2248 96.5795 45.5202 96.6411 45.7797 96.7642C46.0392 96.8854 46.2484 97.0559 46.4075 97.2756C46.5685 97.4953 46.6642 97.7519 46.6945 98.0455H45.8678C45.8223 97.8409 45.7181 97.6648 45.5553 97.517C45.3943 97.3693 45.1784 97.2955 44.9075 97.2955C44.6708 97.2955 44.4634 97.358 44.2854 97.483C44.1092 97.6061 43.9719 97.7822 43.8734 98.0114C43.7749 98.2386 43.7257 98.5076 43.7257 98.8182C43.7257 99.1364 43.774 99.411 43.8706 99.642C43.9672 99.8731 44.1035 100.052 44.2797 100.179C44.4577 100.306 44.667 100.369 44.9075 100.369C45.0685 100.369 45.2143 100.34 45.345 100.281C45.4776 100.221 45.5884 100.134 45.6774 100.023C45.7683 99.911 45.8318 99.7765 45.8678 99.6193H46.6945C46.6642 99.9015 46.5723 100.153 46.4189 100.375C46.2655 100.597 46.06 100.771 45.8024 100.898C45.5467 101.025 45.2465 101.088 44.9018 101.088ZM51.94 95.1818V101H51.0594V96.0625H51.0253L49.6332 96.9716V96.1307L51.0849 95.1818H51.94ZM55.5572 101.08C55.2977 101.076 55.042 101.028 54.7901 100.938C54.5401 100.847 54.3128 100.695 54.1083 100.483C53.9037 100.271 53.7399 99.9858 53.6168 99.6278C53.4956 99.2699 53.435 98.8229 53.435 98.2869C53.435 97.7794 53.4852 97.3286 53.5856 96.9347C53.6878 96.5407 53.8346 96.2083 54.0259 95.9375C54.2172 95.6648 54.4483 95.4574 54.7191 95.3153C54.9899 95.1733 55.2939 95.1023 55.631 95.1023C55.9776 95.1023 56.2854 95.1705 56.5543 95.3068C56.8233 95.4432 57.0411 95.6316 57.2077 95.8722C57.3763 96.1127 57.4833 96.3864 57.5287 96.6932H56.6623C56.6036 96.4508 56.4871 96.2528 56.3128 96.0994C56.1386 95.946 55.9113 95.8693 55.631 95.8693C55.2049 95.8693 54.8725 96.0549 54.6339 96.4261C54.3971 96.7973 54.2778 97.3134 54.2759 97.9744H54.3185C54.4189 97.8097 54.542 97.6695 54.6878 97.554C54.8356 97.4366 55.0003 97.3466 55.1822 97.2841C55.3659 97.2197 55.5591 97.1875 55.7617 97.1875C56.0988 97.1875 56.4037 97.2699 56.6765 97.4347C56.9511 97.5975 57.1698 97.8229 57.3327 98.1108C57.4956 98.3987 57.577 98.7282 57.577 99.0994C57.577 99.4706 57.4928 99.8068 57.3242 100.108C57.1575 100.409 56.9227 100.648 56.6197 100.824C56.3166 100.998 55.9625 101.083 55.5572 101.08ZM55.5543 100.341C55.7778 100.341 55.9776 100.286 56.1537 100.176C56.3299 100.066 56.4691 99.9186 56.5714 99.733C56.6736 99.5473 56.7248 99.34 56.7248 99.1108C56.7248 98.8873 56.6746 98.6837 56.5742 98.5C56.4757 98.3163 56.3394 98.1705 56.1651 98.0625C55.9928 97.9545 55.7958 97.9006 55.5742 97.9006C55.4056 97.9006 55.2494 97.9328 55.1055 97.9972C54.9634 98.0616 54.8384 98.1506 54.7305 98.2642C54.6225 98.3778 54.5373 98.5085 54.4748 98.6562C54.4142 98.8021 54.3839 98.9564 54.3839 99.1193C54.3839 99.3371 54.4341 99.5388 54.5344 99.7244C54.6367 99.91 54.7759 100.06 54.952 100.173C55.1301 100.285 55.3308 100.341 55.5543 100.341Z" fill="#9B9B9B"/>
</svg>
